<svg xmlns="http://www.w3.org/2000/svg">
	<defs>
		<symbol id="logo" viewBox="0 0 400 150">
			<g>
				<g>
					<path fill="var(--primary)" d="M3.9,113.3V9.6h6.2l36.6,89.3V9.6h5.9v103.7h-5.9L9.8,24v89.3H3.9z"/>
					<path fill="var(--primary)" d="M97.1,15.2h-20v98.1h-5.9V15.2h-20V9.6h45.9V15.2z"/>
					<path fill="var(--primary)" d="M134.1,15.2h-20v98.1h-5.9V15.2h-20V9.6h45.9V15.2z"/>
				</g>
				<g>
					<path fill="var(--primary)" d="M163,10.9v0.4c0,0.6-0.4,1-1,1h-7.4v40.1c0,0.6-0.4,1-1,1h-0.5c-0.6,0-1-0.4-1-1V12.3h-7.4c-0.6,0-1-0.4-1-1v-0.4
						c0-0.6,0.4-1,1-1H162C162.6,9.9,163,10.3,163,10.9z"/>
					<path fill="var(--primary)" d="M184.7,53.4h-14.8c-0.6,0-1-0.4-1-1V10.9c0-0.6,0.4-1,1-1h14.6c0.6,0,1,0.4,1,1v0.4c0,0.6-0.4,1-1,1h-13.1v17.9h11.2
						c0.6,0,1,0.4,1,1v0.4c0,0.6-0.4,1-1,1h-11.2V51h13.3c0.6,0,1,0.4,1,1v0.4C185.7,53,185.3,53.4,184.7,53.4z"/>
					<path fill="var(--primary)" d="M211.4,37.3v7.4c0,6.1-3.1,9.2-9.7,9.2h-0.1c-6.6,0-9.7-3-9.7-9.2V18.6c0-5.8,3.1-9.2,9.7-9.2h0.1c6.6,0,9.7,3.4,9.7,9.2
						V25c0,0.6-0.4,1-1,1h-0.5c-0.6,0-1-0.4-1-1v-5.2c0-5.5-1.9-7.9-7.3-7.9c-5.4,0-7.3,2.4-7.3,7.9v23.8c0,5.5,1.9,7.9,7.3,7.9
						c5.4,0,7.3-2.4,7.3-7.9v-6.3c0-0.6,0.4-1,1-1h0.5C211,36.3,211.4,36.7,211.4,37.3z"/>
					<path fill="var(--primary)" d="M220,9.9h0.5c0.6,0,1,0.4,1,1v19.2h15.2V10.9c0-0.6,0.4-1,1-1h0.5c0.6,0,1,0.4,1,1v41.5c0,0.6-0.4,1-1,1h-0.5
						c-0.6,0-1-0.4-1-1V32.5h-15.2v19.9c0,0.6-0.4,1-1,1H220c-0.6,0-1-0.4-1-1V10.9C219,10.3,219.4,9.9,220,9.9z"/>
					<path fill="var(--body-color)" d="M166.3,95.1v7.4c0,6.1-3.1,9.2-9.7,9.2h-0.1c-6.6,0-9.7-3-9.7-9.2V76.4c0-5.8,3.1-9.2,9.7-9.2h0.1c6.6,0,9.7,3.4,9.7,9.2
						v6.3c0,0.6-0.4,1-1,1h-0.5c-0.6,0-1-0.4-1-1v-5.2c0-5.5-1.9-7.9-7.3-7.9c-5.4,0-7.3,2.4-7.3,7.9v23.8c0,5.5,1.9,7.9,7.3,7.9
						c5.4,0,7.3-2.4,7.3-7.9v-6.3c0-0.6,0.4-1,1-1h0.5C166,94.1,166.3,94.4,166.3,95.1z"/>
					<path fill="var(--body-color)" d="M182.4,67.2h0.5c6.6,0,9.7,3.2,9.7,9.2v26.1c0,6-3.1,9.2-9.7,9.2h-0.5c-6.6,0-9.7-3.2-9.7-9.2V76.4
						C172.7,70.3,175.8,67.2,182.4,67.2z M182.7,109.3c5.5,0,7.5-2.4,7.5-7.9V77.5c0-5.6-2-7.9-7.5-7.9c-5.5,0-7.5,2.4-7.5,7.9v23.8
						C175.2,106.9,177.2,109.3,182.7,109.3z"/>
					<path fill="var(--body-color)" d="M201,111.1h-0.5c-0.6,0-1-0.4-1-1V68.7c0-0.6,0.4-1,1-1h0.8c0.6,0,0.9,0.2,1.1,0.7l15,36.7V68.7c0-0.6,0.4-1,1-1h0.5
						c0.6,0,1,0.4,1,1v41.5c0,0.6-0.4,1-1,1h-0.7c-0.6,0-0.9-0.2-1.1-0.7L202,73.7v36.4C202,110.8,201.6,111.1,201,111.1z"/>
					<path fill="var(--body-color)" d="M227.1,110.1V68.7c0-0.6,0.4-1,1-1h14.3c0.6,0,1,0.4,1,1V69c0,0.6-0.4,1-1,1h-12.9v18.2h10.9c0.6,0,1,0.4,1,1v0.4
						c0,0.6-0.4,1-1,1h-10.9v19.6c0,0.6-0.4,1-1,1H228C227.4,111.1,227.1,110.8,227.1,110.1z"/>
					<path fill="var(--body-color)" d="M265.4,111.1h-14.8c-0.6,0-1-0.4-1-1V68.7c0-0.6,0.4-1,1-1h14.6c0.6,0,1,0.4,1,1V69c0,0.6-0.4,1-1,1h-13.1v17.9h11.2
						c0.6,0,1,0.4,1,1v0.4c0,0.6-0.4,1-1,1h-11.2v18.5h13.3c0.6,0,1,0.4,1,1v0.4C266.4,110.8,266,111.1,265.4,111.1z"/>
					<path fill="var(--body-color)" d="M292.7,111.1h-0.7c-0.6,0-0.9-0.2-1.1-0.8l-7.3-18.3h-0.9h-7.5v18.1c0,0.6-0.4,1-1,1h-0.5c-0.6,0-1-0.4-1-1V68.7
						c0-0.6,0.4-1,1-1h9c6.6,0,9.7,3.2,9.7,9.2v6c0,4.8-2,7.8-6.2,8.8l7.3,18.3C293.8,110.6,293.5,111.1,292.7,111.1z M290,81.8V78
						c0-5.6-2-7.9-7.5-7.9h-7.3v19.7h7.3C288,89.7,290,87.4,290,81.8z"/>
					<path fill="var(--body-color)" d="M316.6,111.1h-14.8c-0.6,0-1-0.4-1-1V68.7c0-0.6,0.4-1,1-1h14.6c0.6,0,1,0.4,1,1V69c0,0.6-0.4,1-1,1h-13.1v17.9h11.2
						c0.6,0,1,0.4,1,1v0.4c0,0.6-0.4,1-1,1h-11.2v18.5h13.3c0.6,0,1,0.4,1,1v0.4C317.6,110.8,317.2,111.1,316.6,111.1z"/>
					<path fill="var(--body-color)" d="M325.5,111.1H325c-0.6,0-1-0.4-1-1V68.7c0-0.6,0.4-1,1-1h0.8c0.6,0,0.9,0.2,1.1,0.7l15,36.7V68.7c0-0.6,0.4-1,1-1h0.5
						c0.6,0,1,0.4,1,1v41.5c0,0.6-0.4,1-1,1h-0.7c-0.6,0-0.9-0.2-1.1-0.7l-15.2-36.7v36.4C326.5,110.8,326.1,111.1,325.5,111.1z"/>
					<path fill="var(--body-color)" d="M370.9,95.1v7.4c0,6.1-3.1,9.2-9.7,9.2H361c-6.6,0-9.7-3-9.7-9.2V76.4c0-5.8,3.1-9.2,9.7-9.2h0.1c6.6,0,9.7,3.4,9.7,9.2
						v6.3c0,0.6-0.4,1-1,1h-0.5c-0.6,0-1-0.4-1-1v-5.2c0-5.5-1.9-7.9-7.3-7.9c-5.4,0-7.3,2.4-7.3,7.9v23.8c0,5.5,1.9,7.9,7.3,7.9
						c5.4,0,7.3-2.4,7.3-7.9v-6.3c0-0.6,0.4-1,1-1h0.5C370.5,94.1,370.9,94.4,370.9,95.1z"/>
					<path fill="var(--body-color)" d="M393.3,111.1h-14.8c-0.6,0-1-0.4-1-1V68.7c0-0.6,0.4-1,1-1h14.6c0.6,0,1,0.4,1,1V69c0,0.6-0.4,1-1,1H380v17.9h11.2
						c0.6,0,1,0.4,1,1v0.4c0,0.6-0.4,1-1,1H380v18.5h13.3c0.6,0,1,0.4,1,1v0.4C394.3,110.8,393.9,111.1,393.3,111.1z"/>
				</g>
				<g>
					<path fill="var(--body-color)" d="M300,23.1v-4.7c0-5.8,3-8.9,8.9-8.9h0.1c6,0,8.9,3.1,8.9,8.9v7c0,3.7-3.8,6.6-8.6,10.1c-4.8,3.5-7.1,5.7-7.1,9.9V51H317
						c0.6,0,1,0.4,1,1v0.4c0,0.6-0.4,1-1,1h-16.1c-0.6,0-1-0.4-1-1v-7.2c0-5.5,3.5-8.6,8.4-12c4.5-3.2,7.2-5.2,7.2-8.6v-5.5
						c0-4.8-2.2-7.3-6.6-7.3c-4.5,0-6.4,2.5-6.4,7.3v4c0,0.6-0.4,1-1,1H301C300.4,24.1,300,23.7,300,23.1z"/>
					<path fill="var(--body-color)" d="M344.1,18.6v26.1c0,6-3.3,9.2-9.2,9.2h-0.5c-5.9,0-9.2-3.2-9.2-9.2V18.6c0-6,3.3-9.2,9.2-9.2h0.5
						C340.8,9.4,344.1,12.7,344.1,18.6z M334.7,11.8c-4.8,0-7,2.4-7,7.9v23.8c0,5.6,2.2,7.9,7,7.9s7-2.4,7-7.9V19.8
						C341.6,14.2,339.4,11.8,334.7,11.8z"/>
					<path fill="var(--body-color)" d="M351.7,23.1v-4.7c0-5.8,3-8.9,8.9-8.9h0.1c6,0,8.9,3.1,8.9,8.9v7c0,3.7-3.8,6.6-8.6,10.1c-4.8,3.5-7.1,5.7-7.1,9.9V51
						h14.7c0.6,0,1,0.4,1,1v0.4c0,0.6-0.4,1-1,1h-16.1c-0.6,0-1-0.4-1-1v-7.2c0-5.5,3.5-8.6,8.4-12c4.5-3.2,7.2-5.2,7.2-8.6v-5.5
						c0-4.8-2.2-7.3-6.6-7.3c-4.5,0-6.4,2.5-6.4,7.3v4c0,0.6-0.4,1-1,1h-0.5C352,24.1,351.7,23.7,351.7,23.1z"/>
					<path fill="var(--body-color)" d="M376.3,23.1v-4.7c0-5.8,3-8.9,8.9-8.9h0.1c6,0,8.9,3.1,8.9,8.9v7c0,3.7-3.8,6.6-8.6,10.1c-4.8,3.5-7.1,5.7-7.1,9.9V51
						h14.7c0.6,0,1,0.4,1,1v0.4c0,0.6-0.4,1-1,1h-16.1c-0.6,0-1-0.4-1-1v-7.2c0-5.5,3.5-8.6,8.4-12c4.5-3.2,7.2-5.2,7.2-8.6v-5.5
						c0-4.8-2.2-7.3-6.6-7.3s-6.4,2.5-6.4,7.3v4c0,0.6-0.4,1-1,1h-0.5C376.6,24.1,376.3,23.7,376.3,23.1z"/>
				</g>
				<g>
					<path fill="var(--body-color)" d="M20.5,127.6l-4,14.5h-1.6l-1.9-7.7c-0.5-1.9-0.8-3.3-1-4.8h0c-0.2,1.4-0.6,2.9-1.1,4.8l-2.1,7.8H7.2l-3.6-14.5h1.7
						l1.8,7.5c0.4,1.8,0.8,3.6,1.1,5h0.1c0.2-1.5,0.7-3.2,1.2-5l2-7.5h1.6l1.8,7.5c0.4,1.7,0.8,3.5,1,5h0.1c0.3-1.7,0.7-3.2,1.1-5
						l2-7.5H20.5z"/>
					<path fill="var(--body-color)" d="M29.4,141.7c-0.6,0.3-1.7,0.6-3.2,0.6c-3,0-4.8-2.1-4.8-5.2c0-3.2,1.8-5.6,4.6-5.6c3.2,0,4,2.9,4,4.7c0,0.4,0,0.6,0,0.9
						h-7c0,2.9,1.7,4,3.5,4c1.3,0,2.1-0.3,2.7-0.5L29.4,141.7z M28.4,135.9c0-1.4-0.6-3.2-2.6-3.2c-1.9,0-2.7,1.8-2.9,3.2H28.4z"/>
					<path fill="var(--body-color)" d="M40.3,139.5c0,0.8,0,1.9,0.1,2.6H39l-0.1-1.8h-0.1c-0.5,1.1-1.7,2-3.4,2c-2.4,0-4.3-2.1-4.3-5.3c0-3.5,2.1-5.5,4.5-5.5
						c1.5,0,2.5,0.7,3,1.6h0v-6.2h1.6V139.5z M38.8,135.9c0-2.1-1.5-3.1-2.8-3.1c-2,0-3.1,1.8-3.1,4.2c0,2.2,1,4,3.1,4
						c1.7,0,2.8-1.5,2.8-3.2V135.9z"/>
					<path fill="var(--body-color)" d="M51.1,142.1h-1.6V136c0-1.7-0.6-3.2-2.4-3.2c-1.3,0-2.7,1.1-2.7,2.9v6.3h-1.6v-7.7c0-1.1,0-1.8-0.1-2.7h1.4l0.1,1.7h0
						c0.5-1,1.7-1.9,3.3-1.9c1.3,0,3.5,0.8,3.5,4.3V142.1z"/>
					<path fill="var(--body-color)" d="M61.1,141.7c-0.6,0.3-1.7,0.6-3.2,0.6c-3,0-4.8-2.1-4.8-5.2c0-3.2,1.8-5.6,4.6-5.6c3.2,0,4,2.9,4,4.7c0,0.4,0,0.6,0,0.9
						h-7c0,2.9,1.7,4,3.5,4c1.3,0,2.1-0.3,2.7-0.5L61.1,141.7z M60.1,135.9c0-1.4-0.6-3.2-2.6-3.2c-1.9,0-2.7,1.8-2.9,3.2H60.1z"/>
					<path fill="var(--body-color)" d="M68.5,133.3c-0.4-0.2-1.1-0.6-2-0.6c-1.1,0-1.7,0.7-1.7,1.5c0,0.9,0.6,1.3,1.9,1.9c1.7,0.7,2.6,1.6,2.6,3.1
						c0,1.8-1.4,3.1-3.7,3.1c-1,0-2-0.3-2.7-0.7l0.4-1.2c0.6,0.3,1.4,0.7,2.3,0.7c1.4,0,2.1-0.7,2.1-1.7c0-1-0.6-1.5-1.9-2.1
						c-1.7-0.7-2.6-1.7-2.6-2.9c0-1.6,1.3-2.9,3.4-2.9c1,0,1.8,0.3,2.4,0.6L68.5,133.3z"/>
					<path fill="var(--body-color)" d="M79.7,139.5c0,0.8,0,1.9,0.1,2.6h-1.4l-0.1-1.8h-0.1c-0.5,1.1-1.7,2-3.4,2c-2.4,0-4.3-2.1-4.3-5.3c0-3.5,2.1-5.5,4.5-5.5
						c1.5,0,2.5,0.7,3,1.6h0v-6.2h1.6V139.5z M78.2,135.9c0-2.1-1.5-3.1-2.8-3.1c-2,0-3.1,1.8-3.1,4.2c0,2.2,1,4,3.1,4
						c1.7,0,2.8-1.5,2.8-3.2V135.9z"/>
					<path fill="var(--body-color)" d="M89.2,139.6c0,0.9,0,1.7,0.2,2.5h-1.4l-0.2-1.3h-0.1c-0.5,0.8-1.6,1.6-3.1,1.6c-2,0-3-1.4-3-2.9c0-2.5,2.2-3.8,6-3.8
						c0-0.9,0-2.8-2.4-2.8c-0.9,0-1.8,0.2-2.5,0.7l-0.4-1.1c0.8-0.6,2-0.9,3.2-0.9c2.9,0,3.7,2.1,3.7,4.1V139.6z M87.6,136.7
						c-2,0-4.4,0.3-4.4,2.5c0,1.3,0.8,1.9,1.8,1.9c1.5,0,2.6-1.2,2.6-2.4V136.7z"/>
					<path fill="var(--body-color)" d="M99.7,131.7l-2.8,7.3c-1.2,3.4-2.1,5.3-3.4,6.5c-0.9,0.8-1.7,1.1-2.1,1.2l-0.4-1.3c2.4-0.9,3.3-3.5,3.3-3.7
						c0-0.1,0-0.2-0.1-0.4l-3.7-9.6h1.7l2.3,6.3c0.3,0.7,0.5,1.5,0.7,2.2h0.1c0.2-0.6,0.4-1.4,0.7-2.2l2.1-6.2H99.7z"/>
					<path fill="var(--body-color)" d="M102.1,141c0,0.1,0,0.2-0.1,0.3l-0.8,1.9h-0.8l0.6-1.6c-0.2-0.1-0.5-0.3-0.5-0.7C100.6,140,102.1,140,102.1,141z"/>
					<path fill="var(--body-color)" d="M121,129.7l-5.1,7.8h-0.3l-5.1-7.8v11.8h-1v-13.3c0.5,0,0.7,0,1.2,0l5.1,7.8l5-7.8h1.3v13.3h-1V129.7z"/>
					<path fill="var(--body-color)" d="M133.3,132.1c0,3.1,0,6.2,0,9.4h-0.9v-2c-0.9,1.5-2.3,2.1-3.8,2.1c-2.6,0-4.8-2-4.8-4.8s2.1-4.8,4.8-4.8
						c1.5,0,3.1,0.7,3.8,2.2v-2.1H133.3z M124.7,136.8c0,2.4,1.7,3.9,3.8,3.9c5.2,0,5.2-7.8,0-7.8
						C126.5,132.9,124.7,134.5,124.7,136.8z"/>
					<path fill="var(--body-color)" d="M136.2,132.1l0,1.7c0.6-1.3,1.9-1.8,3.1-1.8c0.7,0,1.4,0.2,2,0.6l-0.4,0.8c-0.5-0.3-1-0.4-1.6-0.4
						c-1.7,0-3.1,1.4-3.1,3.1v5.5h-0.9v-9.4H136.2z"/>
					<path fill="var(--body-color)" d="M150.3,140.2c-0.9,1-2.2,1.4-3.4,1.4c-2.6,0-4.8-1.8-4.8-4.8c0-3,2.1-4.8,4.8-4.8c1.2,0,2.5,0.5,3.4,1.4l-0.6,0.6
						c-0.8-0.8-1.8-1.1-2.8-1.1c-2.1,0-3.9,1.4-3.9,3.9c0,2.5,1.8,3.9,3.9,3.9c1,0,2-0.4,2.8-1.2L150.3,140.2z"/>
					<path fill="var(--body-color)" d="M152.8,128.2v5.7c0.8-1.3,2.1-1.9,3.4-1.9c2.6,0,3.9,1.7,3.9,4.1v5.4h-0.9v-5.4c0-1.9-0.9-3.2-3-3.2
						c-2,0-3.3,1.5-3.3,3.5v5.1h-0.9v-13.3H152.8z"/>
					<path fill="var(--body-color)" d="M167.1,131.8c0-2.8,2.7-3.7,5.1-3.7c2.5,0,5.1,1,5.1,3.9c0,2.7-2.7,3.8-5.1,3.8c-1.9,0-4.2,0.5-4.2,2.8v2h9.2v1H167v-3
						c0-2.9,2.7-3.7,5.2-3.7c1.7,0,4.2-0.6,4.2-2.9c0-2.3-2.4-3-4.2-3c-1.8,0-4.1,0.6-4.1,2.8H167.1z"/>
					<path fill="var(--body-color)" d="M179.2,131.5c0-2.8,2.7-3.4,5-3.4c3.2,0,4.9,1.5,4.9,3.5c0,1.5-1.3,2.8-2.8,3.1c1.6,0.3,3.1,1.6,3.1,3.3
						c0,2.1-1.8,3.8-5.1,3.8c-2.3,0-5.2-0.7-5.2-3.6h1c0,2.4,2.5,2.6,4.2,2.6c2.8,0,4.1-1.3,4.1-2.8c0-1.4-1.4-2.8-4.1-2.8H182v-0.9
						h2.1c2.6,0,4-1.4,4-2.7c0-1.4-1.3-2.7-4-2.7c-1.6,0-4,0.3-4,2.6H179.2z"/>
					<path fill="var(--body-color)" d="M192.5,141c0,0.1,0,0.2-0.1,0.3l-0.8,1.9h-0.8l0.6-1.6c-0.2-0.1-0.5-0.3-0.5-0.7C191,140,192.5,140,192.5,141z"/>
					<path fill="var(--body-color)" d="M199.6,131.8c0-2.8,2.7-3.7,5.1-3.7c2.5,0,5.1,1,5.1,3.9c0,2.7-2.7,3.8-5.1,3.8c-1.9,0-4.2,0.5-4.2,2.8v2h9.2v1h-10.2v-3
						c0-2.9,2.7-3.7,5.2-3.7c1.7,0,4.2-0.6,4.2-2.9c0-2.3-2.4-3-4.2-3c-1.8,0-4.1,0.6-4.1,2.8H199.6z"/>
					<path fill="var(--body-color)" d="M211.5,133.3c0-7,10.2-7,10.2,0v3.2c0,7-10.2,7-10.2,0V133.3z M212.5,136.5c0,5.7,8.2,5.7,8.2,0v-3.2
						c0-5.7-8.2-5.7-8.2,0V136.5z"/>
					<path fill="var(--body-color)" d="M223.4,131.8c0-2.8,2.7-3.7,5.1-3.7c2.5,0,5.1,1,5.1,3.9c0,2.7-2.7,3.8-5.1,3.8c-1.9,0-4.2,0.5-4.2,2.8v2h9.2v1h-10.2v-3
						c0-2.9,2.7-3.7,5.2-3.7c1.7,0,4.2-0.6,4.2-2.9c0-2.3-2.4-3-4.2-3c-1.8,0-4.1,0.6-4.1,2.8H223.4z"/>
					<path fill="var(--body-color)" d="M235.5,131.8c0-2.8,2.7-3.7,5.1-3.7c2.5,0,5.1,1,5.1,3.9c0,2.7-2.7,3.8-5.1,3.8c-1.9,0-4.2,0.5-4.2,2.8v2h9.2v1h-10.2v-3
						c0-2.9,2.7-3.7,5.2-3.7c1.7,0,4.2-0.6,4.2-2.9c0-2.3-2.4-3-4.2-3c-1.8,0-4.1,0.6-4.1,2.8H235.5z"/>
					<path fill="var(--body-color)" d="M266,134.9c0,3.5-2.2,6.9-6.7,6.9s-6.7-3.4-6.7-6.9c0-3.6,2.2-6.8,6.7-6.8S266,131.3,266,134.9z M253.6,134.9
						c0,3,1.9,5.9,5.7,5.9c3.8,0,5.7-2.9,5.7-5.9c0-3.1-1.9-5.9-5.7-5.9S253.6,131.7,253.6,134.9z"/>
					<path fill="var(--body-color)" d="M268.8,132.1v1.7c0.7-1.3,2-1.8,3.3-1.8c2.5,0,4.2,1.5,4.2,4.1v5.4h-0.9v-5.4c0-2.1-1.3-3.3-3.3-3.2
						c-1.9,0-3.3,1.5-3.3,3.4v5.2h-0.9v-9.4H268.8z"/>
					<path fill="var(--body-color)" d="M279.2,128.2v13.3h-0.9v-13.3H279.2z"/>
					<path fill="var(--body-color)" d="M282.6,129.1c0,1-1.5,1-1.5,0C281.1,128.1,282.6,128.1,282.6,129.1z M281.3,132.1v9.4h0.9v-9.4H281.3z"/>
					<path fill="var(--body-color)" d="M285.4,132.1v1.7c0.7-1.3,2-1.8,3.3-1.8c2.5,0,4.2,1.5,4.2,4.1v5.4H292v-5.4c0-2.1-1.3-3.3-3.3-3.2
						c-1.9,0-3.3,1.5-3.3,3.4v5.2h-0.9v-9.4H285.4z"/>
					<path fill="var(--body-color)" d="M294.5,136.8c0-2.8,2.1-4.8,4.8-4.8s5,1.6,4.6,5.3h-8.5c0.2,2.2,1.9,3.5,3.8,3.5c1.2,0,2.7-0.5,3.4-1.4l0.7,0.5
						c-0.9,1.2-2.5,1.8-4,1.8C296.6,141.7,294.5,139.8,294.5,136.8z M303,136.5c0-2.3-1.5-3.6-3.8-3.6c-1.9,0-3.6,1.3-3.8,3.6H303z"/>
				</g>
			</g>
		</symbol>
	</defs>
</svg>
