<svg version="1.1" id="main" xmlns="http://www.w3.org/2000/svg" xmlns:xlink="http://www.w3.org/1999/xlink" viewBox="0 0 400 150">
<g>
	<g>
		<g>
			<path d="M3.87,113.32V9.61h6.22l36.59,89.33V9.61h5.93v103.7h-5.93L9.8,23.98v89.33H3.87z"/>
			<path d="M97.05,15.24h-20v98.07h-5.93V15.24h-20V9.61h45.93V15.24z"/>
			<path d="M134.09,15.24h-20v98.07h-5.93V15.24h-20V9.61h45.93V15.24z"/>
		</g>
		<g>
			<path d="M162.98,10.94v0.37c0,0.62-0.37,0.99-0.99,0.99h-7.39v40.11c0,0.62-0.37,0.99-0.99,0.99h-0.5
				c-0.62,0-0.99-0.37-0.99-0.99V12.3h-7.39c-0.62,0-0.99-0.37-0.99-0.99v-0.37c0-0.62,0.37-0.99,0.99-0.99h17.26
				C162.6,9.94,162.98,10.32,162.98,10.94z"/>
			<path d="M184.71,53.4h-14.78c-0.62,0-0.99-0.37-0.99-0.99V10.94c0-0.62,0.37-0.99,0.99-0.99h14.59c0.62,0,0.99,0.37,0.99,0.99
				v0.37c0,0.62-0.37,0.99-0.99,0.99h-13.1v17.88h11.18c0.62,0,0.99,0.37,0.99,0.99v0.37c0,0.62-0.37,0.99-0.99,0.99h-11.18v18.5
				h13.29c0.62,0,0.99,0.37,0.99,0.99v0.37C185.7,53.03,185.33,53.4,184.71,53.4z"/>
			<path d="M211.41,37.32v7.39c0,6.08-3.1,9.19-9.69,9.19h-0.12c-6.58,0-9.69-3.04-9.69-9.19V18.63c0-5.84,3.1-9.19,9.69-9.19h0.12
				c6.58,0,9.69,3.35,9.69,9.19v6.33c0,0.62-0.37,0.99-0.99,0.99h-0.5c-0.62,0-0.99-0.37-0.99-0.99v-5.22
				c0-5.53-1.86-7.95-7.26-7.95c-5.4,0-7.26,2.42-7.26,7.95v23.84c0,5.53,1.86,7.95,7.26,7.95c5.4,0,7.26-2.42,7.26-7.95v-6.27
				c0-0.62,0.37-0.99,0.99-0.99h0.5C211.03,36.33,211.41,36.7,211.41,37.32z"/>
			<path d="M219.97,9.94h0.5c0.62,0,0.99,0.37,0.99,0.99v19.19h15.21V10.94c0-0.62,0.37-0.99,0.99-0.99h0.5
				c0.62,0,0.99,0.37,0.99,0.99v41.48c0,0.62-0.37,0.99-0.99,0.99h-0.5c-0.62,0-0.99-0.37-0.99-0.99V32.48h-15.21v19.93
				c0,0.62-0.37,0.99-0.99,0.99h-0.5c-0.62,0-0.99-0.37-0.99-0.99V10.94C218.98,10.32,219.35,9.94,219.97,9.94z"/>
			<path d="M166.33,95.06v7.39c0,6.08-3.1,9.19-9.69,9.19h-0.12c-6.58,0-9.69-3.04-9.69-9.19V76.37c0-5.84,3.1-9.19,9.69-9.19h0.12
				c6.58,0,9.69,3.35,9.69,9.19v6.33c0,0.62-0.37,0.99-0.99,0.99h-0.5c-0.62,0-0.99-0.37-0.99-0.99v-5.22
				c0-5.53-1.86-7.95-7.26-7.95c-5.4,0-7.26,2.42-7.26,7.95v23.84c0,5.53,1.86,7.95,7.26,7.95c5.4,0,7.26-2.42,7.26-7.95v-6.27
				c0-0.62,0.37-0.99,0.99-0.99h0.5C165.96,94.06,166.33,94.44,166.33,95.06z"/>
			<path d="M182.41,67.18h0.5c6.58,0,9.69,3.23,9.69,9.19v26.08c0,5.96-3.1,9.19-9.69,9.19h-0.5c-6.58,0-9.69-3.23-9.69-9.19V76.37
				C172.72,70.35,175.83,67.18,182.41,67.18z M182.66,109.27c5.46,0,7.45-2.36,7.45-7.95V77.49c0-5.59-1.99-7.95-7.45-7.95
				c-5.46,0-7.45,2.36-7.45,7.95v23.84C175.21,106.92,177.19,109.27,182.66,109.27z"/>
			<path d="M200.98,111.14h-0.5c-0.62,0-0.99-0.37-0.99-0.99V68.67c0-0.62,0.37-0.99,0.99-0.99h0.81c0.56,0,0.93,0.25,1.12,0.74
				l15.03,36.69V68.67c0-0.62,0.37-0.99,0.99-0.99h0.5c0.62,0,0.99,0.37,0.99,0.99v41.48c0,0.62-0.37,0.99-0.99,0.99h-0.68
				c-0.56,0-0.93-0.25-1.12-0.75L201.97,73.7v36.45C201.97,110.77,201.6,111.14,200.98,111.14z"/>
			<path d="M227.05,110.14V68.67c0-0.62,0.37-0.99,0.99-0.99h14.34c0.62,0,0.99,0.37,0.99,0.99v0.37c0,0.62-0.37,0.99-0.99,0.99
				h-12.85v18.19h10.93c0.62,0,0.99,0.37,0.99,0.99v0.37c0,0.62-0.37,0.99-0.99,0.99h-10.93v19.56c0,0.62-0.37,0.99-0.99,0.99h-0.5
				C227.43,111.14,227.05,110.77,227.05,110.14z"/>
			<path d="M265.36,111.14h-14.78c-0.62,0-0.99-0.37-0.99-0.99V68.67c0-0.62,0.37-0.99,0.99-0.99h14.59c0.62,0,0.99,0.37,0.99,0.99
				v0.37c0,0.62-0.37,0.99-0.99,0.99h-13.1v17.88h11.18c0.62,0,0.99,0.37,0.99,0.99v0.37c0,0.62-0.37,0.99-0.99,0.99h-11.18v18.5
				h13.29c0.62,0,0.99,0.37,0.99,0.99v0.37C266.35,110.77,265.98,111.14,265.36,111.14z"/>
			<path d="M292.74,111.14h-0.68c-0.56,0-0.93-0.25-1.12-0.81l-7.27-18.25h-0.87h-7.51v18.07c0,0.62-0.37,0.99-0.99,0.99h-0.5
				c-0.62,0-0.99-0.37-0.99-0.99V68.67c0-0.62,0.37-0.99,0.99-0.99h9c6.58,0,9.69,3.23,9.69,9.19v6.02c0,4.78-1.99,7.82-6.21,8.82
				l7.26,18.25C293.8,110.64,293.49,111.14,292.74,111.14z M290.01,81.77v-3.79c0-5.59-1.99-7.95-7.45-7.95h-7.26v19.68h7.26
				C288.02,89.72,290.01,87.36,290.01,81.77z"/>
			<path d="M316.59,111.14h-14.78c-0.62,0-0.99-0.37-0.99-0.99V68.67c0-0.62,0.37-0.99,0.99-0.99h14.59c0.62,0,0.99,0.37,0.99,0.99
				v0.37c0,0.62-0.37,0.99-0.99,0.99h-13.1v17.88h11.18c0.62,0,0.99,0.37,0.99,0.99v0.37c0,0.62-0.37,0.99-0.99,0.99H303.3v18.5
				h13.29c0.62,0,0.99,0.37,0.99,0.99v0.37C317.58,110.77,317.21,111.14,316.59,111.14z"/>
			<path d="M325.53,111.14h-0.5c-0.62,0-0.99-0.37-0.99-0.99V68.67c0-0.62,0.37-0.99,0.99-0.99h0.81c0.56,0,0.93,0.25,1.12,0.74
				l15.03,36.69V68.67c0-0.62,0.37-0.99,0.99-0.99h0.5c0.62,0,0.99,0.37,0.99,0.99v41.48c0,0.62-0.37,0.99-0.99,0.99h-0.68
				c-0.56,0-0.93-0.25-1.12-0.75L326.52,73.7v36.45C326.52,110.77,326.15,111.14,325.53,111.14z"/>
			<path d="M370.85,95.06v7.39c0,6.08-3.1,9.19-9.69,9.19h-0.12c-6.58,0-9.69-3.04-9.69-9.19V76.37c0-5.84,3.11-9.19,9.69-9.19h0.12
				c6.58,0,9.69,3.35,9.69,9.19v6.33c0,0.62-0.37,0.99-0.99,0.99h-0.5c-0.62,0-0.99-0.37-0.99-0.99v-5.22
				c0-5.53-1.86-7.95-7.26-7.95c-5.4,0-7.26,2.42-7.26,7.95v23.84c0,5.53,1.86,7.95,7.26,7.95c5.4,0,7.26-2.42,7.26-7.95v-6.27
				c0-0.62,0.37-0.99,0.99-0.99h0.5C370.48,94.06,370.85,94.44,370.85,95.06z"/>
			<path d="M393.27,111.14h-14.78c-0.62,0-0.99-0.37-0.99-0.99V68.67c0-0.62,0.37-0.99,0.99-0.99h14.59c0.62,0,0.99,0.37,0.99,0.99
				v0.37c0,0.62-0.37,0.99-0.99,0.99h-13.1v17.88h11.18c0.62,0,0.99,0.37,0.99,0.99v0.37c0,0.62-0.37,0.99-0.99,0.99h-11.18v18.5
				h13.29c0.62,0,0.99,0.37,0.99,0.99v0.37C394.26,110.77,393.89,111.14,393.27,111.14z"/>
		</g>
		<g>
			<path d="M370.67,24.72v0.12c0,0.62-0.37,0.99-0.99,0.99h-7.26l-2.67,11.67h7.45c0.62,0,0.99,0.37,0.99,0.99v0.12
				c0,0.62-0.37,0.99-0.99,0.99h-7.95l-2.92,12.91c-0.12,0.62-0.5,0.87-1.06,0.87h-0.31c-0.68,0-0.99-0.43-0.87-1.12l2.86-12.67
				h-10.87l-2.92,12.91c-0.12,0.62-0.5,0.87-1.06,0.87h-0.31c-0.68,0-0.99-0.43-0.87-1.12l2.86-12.67h-6.77
				c-0.62,0-0.99-0.37-0.99-0.99V38.5c0-0.62,0.37-0.99,0.99-0.99h7.26l2.67-11.67h-7.45c-0.62,0-0.99-0.37-0.99-0.99v-0.12
				c0-0.62,0.37-0.99,0.99-0.99h7.95l2.92-12.91c0.12-0.62,0.5-0.87,1.06-0.87h0.31c0.68,0,0.99,0.43,0.87,1.12l-2.86,12.67h10.87
				l2.92-12.91c0.12-0.62,0.5-0.87,1.06-0.87h0.31c0.68,0,0.99,0.43,0.87,1.12l-2.86,12.67h6.77
				C370.3,23.73,370.67,24.1,370.67,24.72z M360.12,25.84h-10.87l-2.67,11.67h10.87L360.12,25.84z"/>
			<path d="M392.53,12.3H378.5v16.95c1.37-1.86,3.54-3.6,7.7-3.6c3.6,0,7.82,1.49,7.82,7.08v12.23c0,5.84-3.1,8.94-9.07,8.94h-0.12
				c-5.96,0-9.07-3.1-9.07-8.94v-4.84c0-0.62,0.37-0.99,0.99-0.99h0.5c0.62,0,0.99,0.37,0.99,0.99v4.1c0,4.84,2.05,7.33,6.64,7.33
				s6.64-2.48,6.64-7.33V33.54c0-4.84-3.04-5.53-5.46-5.53c-3.66,0-5.59,1.55-7.08,3.17c-0.37,0.43-0.81,0.56-1.3,0.43l-0.81-0.19
				c-0.62-0.19-0.87-0.56-0.87-1.12V10.94c0-0.62,0.37-0.99,0.99-0.99h15.52c0.62,0,0.99,0.37,0.99,0.99v0.37
				C393.52,11.93,393.15,12.3,392.53,12.3z"/>
		</g>
		<g>
			<path d="M5.3,134.84h7.66v0.97H5.3v6.02H4.28v-13.32h8.95v1.03H5.3V134.84z"/>
			<path d="M15.77,132.43l0.04,1.67c0.59-1.27,1.92-1.77,3.12-1.77c0.7-0.02,1.39,0.17,2.01,0.55l-0.42,0.76
				c-0.49-0.3-1.04-0.44-1.6-0.44c-1.75,0.02-3.1,1.42-3.1,3.13v5.47H14.9v-9.38H15.77z"/>
			<path d="M23.35,129.37c0,0.99-1.5,0.99-1.5,0C21.85,128.39,23.35,128.39,23.35,129.37z M22.12,132.39v9.42h0.93v-9.42H22.12z"/>
			<path d="M34.34,128.52v13.3h-0.91v-2.07c-0.78,1.42-2.32,2.22-3.91,2.22c-2.62,0-4.69-1.73-4.69-4.84c0-3.1,2.09-4.84,4.71-4.84
				c1.61,0,3.13,0.68,3.89,2.2v-5.96H34.34z M25.74,137.12c0,2.6,1.73,3.93,3.84,3.93c2.2,0,3.84-1.61,3.84-3.95
				c0-2.34-1.67-3.93-3.84-3.93C27.47,133.17,25.74,134.48,25.74,137.12z"/>
			<path d="M45.61,132.43c0,3.13,0,6.25,0,9.38h-0.93v-1.99c-0.91,1.46-2.32,2.15-3.84,2.15c-2.62,0-4.77-1.98-4.77-4.84
				s2.15-4.81,4.77-4.81c1.52,0,3.06,0.7,3.84,2.17v-2.05H45.61z M37.01,137.12c0,2.36,1.71,3.93,3.84,3.93c5.22,0,5.22-7.85,0-7.85
				C38.72,133.21,37.01,134.77,37.01,137.12z"/>
			<path d="M55.8,132.43l-5.72,13.3h-0.99l1.73-4.03l-3.76-9.27h1.01l2.19,5.55l1.1,2.72l1.08-2.74l2.36-5.53H55.8z"/>
			<path d="M58.62,141.25c0,0.11-0.02,0.21-0.06,0.32l-0.76,1.94h-0.82l0.59-1.58c-0.25-0.09-0.46-0.32-0.46-0.68
				C57.12,140.26,58.62,140.26,58.62,141.25z"/>
			<path d="M66.97,134.84h7.66v0.97h-7.66v6.02h-1.03v-13.32h8.95v1.03h-7.92V134.84z"/>
			<path d="M76.14,137.12c0-2.81,2.13-4.84,4.77-4.84s5,1.61,4.64,5.28h-8.45c0.19,2.2,1.88,3.48,3.82,3.48
				c1.23,0,2.68-0.49,3.38-1.42l0.67,0.53c-0.91,1.2-2.55,1.8-4.05,1.8C78.26,141.95,76.14,140.11,76.14,137.12z M84.7,136.74
				c-0.02-2.32-1.54-3.61-3.8-3.61c-1.94,0-3.61,1.31-3.82,3.61H84.7z"/>
			<path d="M88.39,128.52v5.96c0.76-1.52,2.28-2.2,3.89-2.2c2.62,0,4.71,1.75,4.71,4.84c0,3.12-2.07,4.84-4.69,4.84
				c-1.6,0-3.13-0.8-3.91-2.22v2.07h-0.91v-13.3H88.39z M88.41,137.11c0,2.34,1.63,3.95,3.84,3.95c2.11,0,3.84-1.33,3.84-3.93
				c0-2.64-1.73-3.95-3.84-3.95C90.08,133.17,88.41,134.77,88.41,137.11z"/>
			<path d="M99.7,132.43l0.04,1.67c0.59-1.27,1.92-1.77,3.12-1.77c0.7-0.02,1.39,0.17,2.01,0.55l-0.42,0.76
				c-0.49-0.3-1.04-0.44-1.6-0.44c-1.75,0.02-3.1,1.42-3.1,3.13v5.47h-0.93v-9.38H99.7z"/>
			<path d="M113.55,141.82v-1.69c-0.72,1.29-2.03,1.82-3.34,1.84c-2.51,0-4.24-1.54-4.24-4.14v-5.41h0.93v5.4
				c0,2.13,1.31,3.27,3.34,3.25c1.94-0.02,3.29-1.48,3.29-3.42v-5.22h0.93v9.4H113.55z"/>
			<path d="M125.55,132.43c0,3.13,0,6.25,0,9.38h-0.93v-1.99c-0.91,1.46-2.32,2.15-3.84,2.15c-2.62,0-4.77-1.98-4.77-4.84
				s2.15-4.81,4.77-4.81c1.52,0,3.06,0.7,3.84,2.17v-2.05H125.55z M116.95,137.12c0,2.36,1.71,3.93,3.84,3.93
				c5.22,0,5.22-7.85,0-7.85C118.66,133.21,116.95,134.77,116.95,137.12z"/>
			<path d="M128.45,132.43l0.04,1.67c0.59-1.27,1.92-1.77,3.12-1.77c0.7-0.02,1.39,0.17,2.01,0.55l-0.42,0.76
				c-0.49-0.3-1.04-0.44-1.6-0.44c-1.75,0.02-3.1,1.42-3.1,3.13v5.47h-0.93v-9.38H128.45z"/>
			<path d="M142.9,132.43l-5.72,13.3h-0.99l1.73-4.03l-3.76-9.27h1.01l2.19,5.55l1.1,2.72l1.08-2.74l2.36-5.53H142.9z"/>
			<path d="M149.45,132.05c0-2.83,2.7-3.7,5.09-3.7c2.45,0,5.11,1.01,5.13,3.88c0,2.72-2.74,3.82-5.09,3.82
				c-1.94,0.02-4.2,0.47-4.2,2.75v2.03h9.16v0.99h-10.16v-3c0-2.94,2.72-3.7,5.17-3.7c1.73,0,4.18-0.65,4.18-2.89
				c0-2.34-2.36-2.98-4.18-2.98c-1.77,0-4.08,0.61-4.08,2.81H149.45z"/>
			<path d="M162.6,135.64c1.06-1.52,2.6-1.88,4.26-1.88c2.51,0,5.19,1.16,5.19,4.1c0,3.02-2.7,4.1-5.21,4.1
				c-2.53,0-5.24-1.14-5.24-4.14v-5.81c0-2.51,2.53-3.69,5.05-3.69c2.66,0,4.9,1.12,5.07,3.36h-1.03c-0.11-1.6-1.86-2.45-4.05-2.45
				c-2.01,0-4.05,0.93-4.05,2.77V135.64z M171.03,137.87c0-2.18-2.28-3.17-4.18-3.17c-1.9,0-4.22,0.97-4.24,3.15
				c-0.02,2.39,2.32,3.15,4.22,3.15C168.73,141,171.03,140.3,171.03,137.87z"/>
			<path d="M175.18,141.25c0,0.11-0.02,0.21-0.06,0.32l-0.76,1.94h-0.82l0.59-1.58c-0.25-0.09-0.46-0.32-0.46-0.68
				C173.68,140.26,175.18,140.26,175.18,141.25z"/>
			<path d="M182.24,132.05c0-2.83,2.7-3.7,5.09-3.7c2.45,0,5.11,1.01,5.13,3.88c0,2.72-2.74,3.82-5.09,3.82
				c-1.94,0.02-4.2,0.47-4.2,2.75v2.03h9.16v0.99h-10.16v-3c0-2.94,2.72-3.7,5.17-3.7c1.73,0,4.18-0.65,4.18-2.89
				c0-2.34-2.36-2.98-4.18-2.98c-1.77,0-4.08,0.61-4.08,2.81H182.24z"/>
			<path d="M194.17,133.57c0-6.97,10.18-6.95,10.18,0v3.17c0,6.95-10.18,6.97-10.18,0V133.57z M195.17,136.74
				c0,5.7,8.17,5.68,8.17,0v-3.17c0-5.66-8.17-5.68-8.17,0V136.74z"/>
			<path d="M206.04,132.05c0-2.83,2.7-3.7,5.09-3.7c2.45,0,5.11,1.01,5.13,3.88c0,2.72-2.74,3.82-5.09,3.82
				c-1.94,0.02-4.2,0.47-4.2,2.75v2.03h9.16v0.99h-10.16v-3c0-2.94,2.72-3.7,5.17-3.7c1.73,0,4.18-0.65,4.18-2.89
				c0-2.34-2.36-2.98-4.18-2.98c-1.77,0-4.08,0.61-4.08,2.81H206.04z"/>
			<path d="M217.49,140.92h2.24v-11.49h-2.24v-0.91h3.27v12.4H223v0.89h-5.51V140.92z"/>
			<path d="M242.67,135.19c-0.02,3.5-2.24,6.86-6.71,6.86s-6.71-3.38-6.71-6.9c0-3.57,2.22-6.84,6.71-6.84
				S242.69,131.6,242.67,135.19z M230.27,135.17c0.02,3,1.92,5.93,5.7,5.93c3.8,0,5.72-2.93,5.72-5.93c0-3.08-1.9-5.91-5.72-5.91
				S230.25,132.03,230.27,135.17z"/>
			<path d="M245.39,132.43v1.67c0.72-1.29,2.03-1.82,3.34-1.84c2.51,0,4.24,1.54,4.24,4.14v5.41h-0.93v-5.4
				c0-2.13-1.31-3.27-3.34-3.25c-1.94,0.02-3.29,1.48-3.29,3.42v5.22h-0.93v-9.38H245.39z"/>
			<path d="M255.85,128.52v13.3h-0.93v-13.3H255.85z"/>
			<path d="M259.22,129.37c0,0.99-1.5,0.99-1.5,0C257.72,128.39,259.22,128.39,259.22,129.37z M257.99,132.39v9.42h0.93v-9.42
				H257.99z"/>
			<path d="M262.02,132.43v1.67c0.72-1.29,2.03-1.82,3.34-1.84c2.51,0,4.24,1.54,4.24,4.14v5.41h-0.93v-5.4
				c0-2.13-1.31-3.27-3.34-3.25c-1.94,0.02-3.29,1.48-3.29,3.42v5.22h-0.93v-9.38H262.02z"/>
			<path d="M271.12,137.12c0-2.81,2.13-4.84,4.77-4.84s5,1.61,4.64,5.28h-8.45c0.19,2.2,1.88,3.48,3.82,3.48
				c1.23,0,2.68-0.49,3.38-1.42l0.67,0.53c-0.91,1.2-2.55,1.8-4.05,1.8C273.25,141.95,271.12,140.11,271.12,137.12z M279.69,136.74
				c-0.02-2.32-1.54-3.61-3.8-3.61c-1.94,0-3.61,1.31-3.82,3.61H279.69z"/>
		</g>
	</g>
</g>
</svg>
