<svg xmlns="http://www.w3.org/2000/svg">
	<defs>
		<symbol id="logo" viewBox="0 0 400 150">
			<g>
				<g>
					<path fill="var(--primary)" d="M3.9,113.3V9.6h6.2l36.6,89.3V9.6h5.9v103.7h-5.9L9.8,24v89.3H3.9z"/>
					<path fill="var(--primary)" d="M97.1,15.2h-20v98.1h-5.9V15.2h-20V9.6h45.9V15.2z"/>
					<path fill="var(--primary)" d="M134.1,15.2h-20v98.1h-5.9V15.2h-20V9.6h45.9V15.2z"/>
				</g>
				<g>
					<path fill="var(--primary)" d="M163,10.9v0.4c0,0.6-0.4,1-1,1h-7.4v40.1c0,0.6-0.4,1-1,1h-0.5c-0.6,0-1-0.4-1-1V12.3h-7.4c-0.6,0-1-0.4-1-1
						v-0.4c0-0.6,0.4-1,1-1H162C162.6,9.9,163,10.3,163,10.9z"/>
					<path fill="var(--primary)" d="M184.7,53.4h-14.8c-0.6,0-1-0.4-1-1V10.9c0-0.6,0.4-1,1-1h14.6c0.6,0,1,0.4,1,1v0.4c0,0.6-0.4,1-1,1h-13.1
						v17.9h11.2c0.6,0,1,0.4,1,1v0.4c0,0.6-0.4,1-1,1h-11.2V51h13.3c0.6,0,1,0.4,1,1v0.4C185.7,53,185.3,53.4,184.7,53.4z"/>
					<path fill="var(--primary)" d="M211.4,37.3v7.4c0,6.1-3.1,9.2-9.7,9.2h-0.1c-6.6,0-9.7-3-9.7-9.2V18.6c0-5.8,3.1-9.2,9.7-9.2h0.1
						c6.6,0,9.7,3.4,9.7,9.2V25c0,0.6-0.4,1-1,1h-0.5c-0.6,0-1-0.4-1-1v-5.2c0-5.5-1.9-7.9-7.3-7.9c-5.4,0-7.3,2.4-7.3,7.9v23.8
						c0,5.5,1.9,7.9,7.3,7.9c5.4,0,7.3-2.4,7.3-7.9v-6.3c0-0.6,0.4-1,1-1h0.5C211,36.3,211.4,36.7,211.4,37.3z"/>
					<path fill="var(--primary)" d="M220,9.9h0.5c0.6,0,1,0.4,1,1v19.2h15.2V10.9c0-0.6,0.4-1,1-1h0.5c0.6,0,1,0.4,1,1v41.5c0,0.6-0.4,1-1,1
						h-0.5c-0.6,0-1-0.4-1-1V32.5h-15.2v19.9c0,0.6-0.4,1-1,1H220c-0.6,0-1-0.4-1-1V10.9C219,10.3,219.4,9.9,220,9.9z"/>
					<path fill="var(--body-color)" d="M166.3,95.1v7.4c0,6.1-3.1,9.2-9.7,9.2h-0.1c-6.6,0-9.7-3-9.7-9.2V76.4c0-5.8,3.1-9.2,9.7-9.2h0.1
						c6.6,0,9.7,3.4,9.7,9.2v6.3c0,0.6-0.4,1-1,1h-0.5c-0.6,0-1-0.4-1-1v-5.2c0-5.5-1.9-7.9-7.3-7.9c-5.4,0-7.3,2.4-7.3,7.9v23.8
						c0,5.5,1.9,7.9,7.3,7.9c5.4,0,7.3-2.4,7.3-7.9v-6.3c0-0.6,0.4-1,1-1h0.5C166,94.1,166.3,94.4,166.3,95.1z"/>
					<path fill="var(--body-color)" d="M182.4,67.2h0.5c6.6,0,9.7,3.2,9.7,9.2v26.1c0,6-3.1,9.2-9.7,9.2h-0.5c-6.6,0-9.7-3.2-9.7-9.2V76.4
						C172.7,70.3,175.8,67.2,182.4,67.2z M182.7,109.3c5.5,0,7.5-2.4,7.5-7.9V77.5c0-5.6-2-7.9-7.5-7.9c-5.5,0-7.5,2.4-7.5,7.9v23.8
						C175.2,106.9,177.2,109.3,182.7,109.3z"/>
					<path fill="var(--body-color)" d="M201,111.1h-0.5c-0.6,0-1-0.4-1-1V68.7c0-0.6,0.4-1,1-1h0.8c0.6,0,0.9,0.2,1.1,0.7l15,36.7V68.7
						c0-0.6,0.4-1,1-1h0.5c0.6,0,1,0.4,1,1v41.5c0,0.6-0.4,1-1,1h-0.7c-0.6,0-0.9-0.2-1.1-0.7L202,73.7v36.4
						C202,110.8,201.6,111.1,201,111.1z"/>
					<path fill="var(--body-color)" d="M227.1,110.1V68.7c0-0.6,0.4-1,1-1h14.3c0.6,0,1,0.4,1,1V69c0,0.6-0.4,1-1,1h-12.9v18.2h10.9
						c0.6,0,1,0.4,1,1v0.4c0,0.6-0.4,1-1,1h-10.9v19.6c0,0.6-0.4,1-1,1H228C227.4,111.1,227.1,110.8,227.1,110.1z"/>
					<path fill="var(--body-color)" d="M265.4,111.1h-14.8c-0.6,0-1-0.4-1-1V68.7c0-0.6,0.4-1,1-1h14.6c0.6,0,1,0.4,1,1V69c0,0.6-0.4,1-1,1h-13.1
						v17.9h11.2c0.6,0,1,0.4,1,1v0.4c0,0.6-0.4,1-1,1h-11.2v18.5h13.3c0.6,0,1,0.4,1,1v0.4C266.4,110.8,266,111.1,265.4,111.1z"/>
					<path fill="var(--body-color)" d="M292.7,111.1h-0.7c-0.6,0-0.9-0.2-1.1-0.8l-7.3-18.3h-0.9h-7.5v18.1c0,0.6-0.4,1-1,1h-0.5c-0.6,0-1-0.4-1-1
						V68.7c0-0.6,0.4-1,1-1h9c6.6,0,9.7,3.2,9.7,9.2v6c0,4.8-2,7.8-6.2,8.8l7.3,18.3C293.8,110.6,293.5,111.1,292.7,111.1z M290,81.8
						V78c0-5.6-2-7.9-7.5-7.9h-7.3v19.7h7.3C288,89.7,290,87.4,290,81.8z"/>
					<path fill="var(--body-color)" d="M316.6,111.1h-14.8c-0.6,0-1-0.4-1-1V68.7c0-0.6,0.4-1,1-1h14.6c0.6,0,1,0.4,1,1V69c0,0.6-0.4,1-1,1h-13.1
						v17.9h11.2c0.6,0,1,0.4,1,1v0.4c0,0.6-0.4,1-1,1h-11.2v18.5h13.3c0.6,0,1,0.4,1,1v0.4C317.6,110.8,317.2,111.1,316.6,111.1z"/>
					<path fill="var(--body-color)" d="M325.5,111.1H325c-0.6,0-1-0.4-1-1V68.7c0-0.6,0.4-1,1-1h0.8c0.6,0,0.9,0.2,1.1,0.7l15,36.7V68.7
						c0-0.6,0.4-1,1-1h0.5c0.6,0,1,0.4,1,1v41.5c0,0.6-0.4,1-1,1h-0.7c-0.6,0-0.9-0.2-1.1-0.7l-15.2-36.7v36.4
						C326.5,110.8,326.1,111.1,325.5,111.1z"/>
					<path fill="var(--body-color)" d="M370.9,95.1v7.4c0,6.1-3.1,9.2-9.7,9.2H361c-6.6,0-9.7-3-9.7-9.2V76.4c0-5.8,3.1-9.2,9.7-9.2h0.1
						c6.6,0,9.7,3.4,9.7,9.2v6.3c0,0.6-0.4,1-1,1h-0.5c-0.6,0-1-0.4-1-1v-5.2c0-5.5-1.9-7.9-7.3-7.9c-5.4,0-7.3,2.4-7.3,7.9v23.8
						c0,5.5,1.9,7.9,7.3,7.9c5.4,0,7.3-2.4,7.3-7.9v-6.3c0-0.6,0.4-1,1-1h0.5C370.5,94.1,370.9,94.4,370.9,95.1z"/>
					<path fill="var(--body-color)" d="M393.3,111.1h-14.8c-0.6,0-1-0.4-1-1V68.7c0-0.6,0.4-1,1-1h14.6c0.6,0,1,0.4,1,1V69c0,0.6-0.4,1-1,1H380
						v17.9h11.2c0.6,0,1,0.4,1,1v0.4c0,0.6-0.4,1-1,1H380v18.5h13.3c0.6,0,1,0.4,1,1v0.4C394.3,110.8,393.9,111.1,393.3,111.1z"/>
				</g>
				<g>
					<path fill="var(--body-color)" d="M299.7,23.1v-4.7c0-5.8,3-8.9,8.9-8.9h0.1c6,0,8.9,3.1,8.9,8.9v7c0,3.7-3.8,6.6-8.6,10.1
						c-4.8,3.5-7.1,5.7-7.1,9.9V51h14.7c0.6,0,1,0.4,1,1v0.4c0,0.6-0.4,1-1,1h-16.1c-0.6,0-1-0.4-1-1v-7.2c0-5.5,3.5-8.6,8.4-12
						c4.5-3.2,7.2-5.2,7.2-8.6v-5.5c0-4.8-2.2-7.3-6.6-7.3c-4.5,0-6.4,2.5-6.4,7.3v4c0,0.6-0.4,1-1,1h-0.5
						C300.1,24.1,299.7,23.7,299.7,23.1z"/>
					<path fill="var(--body-color)" d="M343.8,18.6v26.1c0,6-3.3,9.2-9.2,9.2h-0.5c-5.9,0-9.2-3.2-9.2-9.2V18.6c0-6,3.3-9.2,9.2-9.2h0.5
						C340.5,9.4,343.8,12.7,343.8,18.6z M334.3,11.8c-4.8,0-7,2.4-7,7.9v23.8c0,5.6,2.2,7.9,7,7.9c4.8,0,7-2.4,7-7.9V19.8
						C341.3,14.2,339.1,11.8,334.3,11.8z"/>
					<path fill="var(--body-color)" d="M351.4,23.1v-4.7c0-5.8,3-8.9,8.9-8.9h0.1c6,0,8.9,3.1,8.9,8.9v7c0,3.7-3.8,6.6-8.6,10.1
						c-4.8,3.5-7.1,5.7-7.1,9.9V51h14.7c0.6,0,1,0.4,1,1v0.4c0,0.6-0.4,1-1,1h-16.1c-0.6,0-1-0.4-1-1v-7.2c0-5.5,3.5-8.6,8.4-12
						c4.5-3.2,7.2-5.2,7.2-8.6v-5.5c0-4.8-2.2-7.3-6.6-7.3s-6.4,2.5-6.4,7.3v4c0,0.6-0.4,1-1,1h-0.5C351.7,24.1,351.4,23.7,351.4,23.1
						z"/>
					<path fill="var(--body-color)" d="M389.1,30.8c4.4,0.7,4.8,3.9,4.8,6.3v7.6c0,5.5-2.6,9.2-8.3,9.2h-1.7c-5.7,0-8.3-3.7-8.3-9.2v-4.2
						c0-0.6,0.4-1,1-1h0.5c0.6,0,1,0.4,1,1V44c0,5.5,2.3,7.6,6.5,7.6h0.4c4.2,0,6.5-2,6.5-7.6v-6.8c0-3.5-2-5.1-6.2-5.1h-3.3
						c-0.6,0-1-0.4-1-1v-0.4c0-0.6,0.4-1,1-1h2.7c4.7,0,6.8-1.6,6.8-5.7v-4.7c0-5.5-2.3-7.6-6.5-7.6h-0.6c-4.2,0-6.5,2-6.5,7.6v2.5
						c0,0.6-0.4,1-1,1h-0.4c-0.6,0-1-0.4-1-1v-3.2c0-6.1,3.2-9.2,8.9-9.2h0.4c5.7,0,8.9,3.1,8.9,9.2V24
						C393.9,26.7,393.3,30.2,389.1,30.8z"/>
				</g>
				<g>
					<path fill="var(--body-color)" d="M5.6,133.7h8.9v1.1H5.6v7H4.4v-15.4h10.4v1.2H5.6V133.7z"/>
					<path fill="var(--body-color)" d="M17.7,130.9l0,1.9c0.7-1.5,2.2-2,3.6-2c0.8,0,1.6,0.2,2.3,0.6l-0.5,0.9c-0.6-0.4-1.2-0.5-1.8-0.5
						c-2,0-3.6,1.6-3.6,3.6v6.3h-1.1v-10.9H17.7z"/>
					<path fill="var(--body-color)" d="M26.5,127.4c0,1.1-1.7,1.1-1.7,0S26.5,126.3,26.5,127.4z M25.1,130.9v10.9h1.1v-10.9H25.1z"/>
					<path fill="var(--body-color)" d="M39.2,126.4v15.4h-1.1v-2.4c-0.9,1.7-2.7,2.6-4.5,2.6c-3,0-5.4-2-5.4-5.6c0-3.6,2.4-5.6,5.5-5.6
						c1.9,0,3.6,0.8,4.5,2.6v-6.9H39.2z M29.3,136.4c0,3,2,4.6,4.4,4.6c2.6,0,4.4-1.9,4.4-4.6c0-2.7-1.9-4.6-4.4-4.6
						C31.3,131.8,29.3,133.3,29.3,136.4z"/>
					<path fill="var(--body-color)" d="M52.3,130.9c0,3.6,0,7.2,0,10.9h-1.1v-2.3c-1.1,1.7-2.7,2.5-4.4,2.5c-3,0-5.5-2.3-5.5-5.6
						c0-3.3,2.5-5.6,5.5-5.6c1.8,0,3.5,0.8,4.4,2.5v-2.4H52.3z M42.3,136.4c0,2.7,2,4.6,4.4,4.6c6.1,0,6.1-9.1,0-9.1
						C44.3,131.8,42.3,133.7,42.3,136.4z"/>
					<path fill="var(--body-color)" d="M64.1,130.9l-6.6,15.4h-1.1l2-4.7L54,130.9h1.2l2.5,6.4l1.3,3.1l1.3-3.2l2.7-6.4H64.1z"/>
					<path fill="var(--body-color)" d="M67.4,141.2c0,0.1,0,0.2-0.1,0.4l-0.9,2.2h-0.9l0.7-1.8c-0.3-0.1-0.5-0.4-0.5-0.8
						C65.6,140,67.4,140,67.4,141.2z"/>
					<path fill="var(--body-color)" d="M89.3,128.1l-5.9,9H83l-5.9-9v13.7h-1.2v-15.4c0.6,0,0.8,0,1.4,0l5.9,9l5.8-9h1.5v15.4h-1.2V128.1z"/>
					<path fill="var(--body-color)" d="M103.6,130.9c0,3.6,0,7.2,0,10.9h-1.1v-2.3c-1.1,1.7-2.7,2.5-4.4,2.5c-3,0-5.5-2.3-5.5-5.6
						c0-3.3,2.5-5.6,5.5-5.6c1.8,0,3.5,0.8,4.4,2.5v-2.4H103.6z M93.6,136.4c0,2.7,2,4.6,4.4,4.6c6.1,0,6.1-9.1,0-9.1
						C95.6,131.8,93.6,133.7,93.6,136.4z"/>
					<path fill="var(--body-color)" d="M106.9,130.9l0,1.9c0.7-1.5,2.2-2,3.6-2c0.8,0,1.6,0.2,2.3,0.6l-0.5,0.9c-0.6-0.4-1.2-0.5-1.8-0.5
						c-2,0-3.6,1.6-3.6,3.6v6.3h-1.1v-10.9H106.9z"/>
					<path fill="var(--body-color)" d="M123.2,140.3c-1.1,1.1-2.5,1.6-4,1.6c-3.1,0-5.6-2.1-5.6-5.5c0-3.4,2.4-5.5,5.6-5.5c1.4,0,2.9,0.5,4,1.6
						l-0.7,0.7c-0.9-0.9-2.1-1.3-3.3-1.3c-2.5,0-4.5,1.6-4.5,4.5c0,2.9,2.1,4.5,4.5,4.5c1.2,0,2.4-0.5,3.2-1.3L123.2,140.3z"/>
					<path fill="var(--body-color)" d="M126,126.4v6.6c0.9-1.6,2.4-2.2,3.9-2.2c3,0,4.6,2,4.6,4.8v6.2h-1.1v-6.2c0-2.2-1.1-3.8-3.5-3.8
						c-2.3,0-3.9,1.8-3.9,4v6H125v-15.4H126z"/>
					<path fill="var(--body-color)" d="M142.7,130.5c0-3.3,3.1-4.3,5.9-4.3c2.8,0,5.9,1.2,5.9,4.5c0,3.1-3.2,4.4-5.9,4.4c-2.2,0-4.9,0.6-4.9,3.2
						v2.4h10.6v1.1h-11.8v-3.5c0-3.4,3.1-4.3,6-4.3c2,0,4.8-0.7,4.8-3.3c0-2.7-2.7-3.5-4.8-3.5c-2,0-4.7,0.7-4.7,3.3H142.7z"/>
					<path fill="var(--body-color)" d="M166.9,126.4v10.7h1.9v1.2h-1.9v3.5h-1.2v-3.5h-9.4l-0.2-1.4l8.9-10.5H166.9z M165.8,127.3l-8.4,9.9h8.4
						V127.3z"/>
					<path fill="var(--body-color)" d="M172.2,141.2c0,0.1,0,0.2-0.1,0.4l-0.9,2.2h-0.9l0.7-1.8c-0.3-0.1-0.5-0.4-0.5-0.8
						C170.5,140,172.2,140,172.2,141.2z"/>
					<path fill="var(--body-color)" d="M180.4,130.5c0-3.3,3.1-4.3,5.9-4.3c2.8,0,5.9,1.2,5.9,4.5c0,3.1-3.2,4.4-5.9,4.4c-2.2,0-4.9,0.6-4.9,3.2
						v2.4h10.6v1.1h-11.8v-3.5c0-3.4,3.1-4.3,6-4.3c2,0,4.8-0.7,4.8-3.3c0-2.7-2.7-3.5-4.8-3.5c-2,0-4.7,0.7-4.7,3.3H180.4z"/>
					<path fill="var(--body-color)" d="M194.2,132.3c0-8.1,11.8-8.1,11.8,0v3.7c0,8.1-11.8,8.1-11.8,0V132.3z M195.4,135.9c0,6.6,9.5,6.6,9.5,0
						v-3.7c0-6.6-9.5-6.6-9.5,0V135.9z"/>
					<path fill="var(--body-color)" d="M207.9,130.5c0-3.3,3.1-4.3,5.9-4.3c2.8,0,5.9,1.2,5.9,4.5c0,3.1-3.2,4.4-5.9,4.4c-2.2,0-4.9,0.6-4.9,3.2
						v2.4h10.6v1.1h-11.8v-3.5c0-3.4,3.1-4.3,6-4.3c2,0,4.8-0.7,4.8-3.3c0-2.7-2.7-3.5-4.8-3.5c-2,0-4.7,0.7-4.7,3.3H207.9z"/>
					<path fill="var(--body-color)" d="M221.9,130.2c0-3.2,3.2-4,5.7-4c3.7,0,5.7,1.8,5.7,4.1c0,1.7-1.5,3.3-3.3,3.6c1.8,0.4,3.5,1.9,3.5,3.8
						c0,2.4-2,4.4-5.9,4.4c-2.7,0-6-0.8-6-4.1h1.1c0,2.8,2.9,3,4.9,3c3.2,0,4.8-1.5,4.8-3.2c0-1.6-1.6-3.3-4.8-3.3h-2.6v-1h2.5
						c3.1,0,4.6-1.7,4.6-3.1c0-1.6-1.5-3.1-4.6-3.1c-1.9,0-4.6,0.4-4.6,3H221.9z"/>
					<path fill="var(--body-color)" d="M257,134.1c0,4-2.6,7.9-7.8,7.9s-7.8-3.9-7.8-8c0-4.1,2.6-7.9,7.8-7.9S257,130,257,134.1z M242.6,134.1
						c0,3.5,2.2,6.9,6.6,6.9c4.4,0,6.6-3.4,6.6-6.9c0-3.6-2.2-6.8-6.6-6.8C244.8,127.3,242.6,130.5,242.6,134.1z"/>
					<path fill="var(--body-color)" d="M260.1,130.9v1.9c0.8-1.5,2.4-2.1,3.9-2.1c2.9,0,4.9,1.8,4.9,4.8v6.3h-1.1v-6.2c0-2.5-1.5-3.8-3.9-3.8
						c-2.2,0-3.8,1.7-3.8,4v6.1h-1.1v-10.9H260.1z"/>
					<path fill="var(--body-color)" d="M272.2,126.4v15.4h-1.1v-15.4H272.2z"/>
					<path fill="var(--body-color)" d="M276.1,127.4c0,1.1-1.7,1.1-1.7,0S276.1,126.3,276.1,127.4z M274.7,130.9v10.9h1.1v-10.9H274.7z"/>
					<path fill="var(--body-color)" d="M279.4,130.9v1.9c0.8-1.5,2.4-2.1,3.9-2.1c2.9,0,4.9,1.8,4.9,4.8v6.3h-1.1v-6.2c0-2.5-1.5-3.8-3.9-3.8
						c-2.2,0-3.8,1.7-3.8,4v6.1h-1.1v-10.9H279.4z"/>
					<path fill="var(--body-color)" d="M289.9,136.4c0-3.3,2.5-5.6,5.5-5.6c3.1,0,5.8,1.9,5.4,6.1H291c0.2,2.6,2.2,4,4.4,4c1.4,0,3.1-0.6,3.9-1.6
						l0.8,0.6c-1.1,1.4-2.9,2.1-4.7,2.1C292.4,142,289.9,139.8,289.9,136.4z M299.8,135.9c0-2.7-1.8-4.2-4.4-4.2
						c-2.2,0-4.2,1.5-4.4,4.2H299.8z"/>
				</g>
			</g>
		</symbol>
	</defs>
</svg>
