<svg xmlns="http://www.w3.org/2000/svg">
  <symbol id="logo" viewBox="0 0 400 150">
    <g>
      <g>
      <path fill="var(--primary)" d="M3.87,113.32V9.61h6.22l36.59,89.33V9.61h5.93v103.7h-5.93L9.8,23.98v89.33H3.87Z"/>
      <path fill="var(--primary)" d="M97.05,15.24h-20v98.07h-5.93V15.24h-20v-5.63h45.93v5.63Z"/>
      <path fill="var(--primary)" d="M134.09,15.24h-20v98.07h-5.93V15.24h-20v-5.63h45.93v5.63Z"/>
    </g>
    <g>
      <path fill="var(--primary)" d="M162.98,10.94v.37c0,.62-.37.99-.99.99h-7.39v40.11c0,.62-.37.99-.99.99h-.5c-.62,0-.99-.37-.99-.99V12.3h-7.39c-.62,0-.99-.37-.99-.99v-.37c0-.62.37-.99.99-.99h17.26c.62,0,.99.37.99.99Z"/>
      <path fill="var(--primary)" d="M184.71,53.4h-14.78c-.62,0-.99-.37-.99-.99V10.94c0-.62.37-.99.99-.99h14.59c.62,0,.99.37.99.99v.37c0,.62-.37.99-.99.99h-13.1v17.88h11.18c.62,0,.99.37.99.99v.37c0,.62-.37.99-.99.99h-11.18v18.5h13.29c.62,0,.99.37.99.99v.37c0,.62-.37.99-.99.99Z"/>
      <path fill="var(--primary)" d="M211.41,37.32v7.39c0,6.08-3.1,9.19-9.69,9.19h-.12c-6.58,0-9.69-3.04-9.69-9.19v-26.08c0-5.84,3.1-9.19,9.69-9.19h.12c6.58,0,9.69,3.35,9.69,9.19v6.33c0,.62-.37.99-.99.99h-.5c-.62,0-.99-.37-.99-.99v-5.22c0-5.53-1.86-7.95-7.26-7.95s-7.26,2.42-7.26,7.95v23.84c0,5.53,1.86,7.95,7.26,7.95s7.26-2.42,7.26-7.95v-6.27c0-.62.37-.99.99-.99h.5c.62,0,.99.37.99.99Z"/>
      <path fill="var(--primary)" d="M219.97,9.94h.5c.62,0,.99.37.99.99v19.19h15.21V10.94c0-.62.37-.99.99-.99h.5c.62,0,.99.37.99.99v41.48c0,.62-.37.99-.99.99h-.5c-.62,0-.99-.37-.99-.99v-19.93h-15.21v19.93c0,.62-.37.99-.99.99h-.5c-.62,0-.99-.37-.99-.99V10.94c0-.62.37-.99.99-.99Z"/>
      <path fill="var(--body-color)" d="M166.33,95.06v7.39c0,6.08-3.1,9.19-9.69,9.19h-.12c-6.58,0-9.69-3.04-9.69-9.19v-26.08c0-5.84,3.11-9.19,9.69-9.19h.12c6.58,0,9.69,3.35,9.69,9.19v6.33c0,.62-.37.99-.99.99h-.5c-.62,0-.99-.37-.99-.99v-5.22c0-5.53-1.86-7.95-7.26-7.95s-7.26,2.42-7.26,7.95v23.84c0,5.53,1.86,7.95,7.26,7.95s7.26-2.42,7.26-7.95v-6.27c0-.62.37-.99.99-.99h.5c.62,0,.99.37.99.99Z"/>
      <path fill="var(--body-color)" d="M182.41,67.18h.5c6.58,0,9.69,3.23,9.69,9.19v26.08c0,5.96-3.1,9.19-9.69,9.19h-.5c-6.58,0-9.69-3.23-9.69-9.19v-26.08c0-6.02,3.1-9.19,9.69-9.19ZM182.66,109.27c5.46,0,7.45-2.36,7.45-7.95v-23.84c0-5.59-1.99-7.95-7.45-7.95s-7.45,2.36-7.45,7.95v23.84c0,5.59,1.99,7.95,7.45,7.95Z"/>
      <path fill="var(--body-color)" d="M200.97,111.14h-.5c-.62,0-.99-.37-.99-.99v-41.48c0-.62.37-.99.99-.99h.81c.56,0,.93.25,1.12.74l15.03,36.69v-36.45c0-.62.37-.99.99-.99h.5c.62,0,.99.37.99.99v41.48c0,.62-.37.99-.99.99h-.68c-.56,0-.93-.25-1.12-.75l-15.15-36.69v36.45c0,.62-.37.99-.99.99Z"/>
      <path fill="var(--body-color)" d="M227.05,110.14v-41.48c0-.62.37-.99.99-.99h14.34c.62,0,.99.37.99.99v.37c0,.62-.37.99-.99.99h-12.85v18.19h10.93c.62,0,.99.37.99.99v.37c0,.62-.37.99-.99.99h-10.93v19.56c0,.62-.37.99-.99.99h-.5c-.62,0-.99-.37-.99-.99Z"/>
      <path fill="var(--body-color)" d="M265.36,111.14h-14.78c-.62,0-.99-.37-.99-.99v-41.48c0-.62.37-.99.99-.99h14.59c.62,0,.99.37.99.99v.37c0,.62-.37.99-.99.99h-13.1v17.88h11.18c.62,0,.99.37.99.99v.37c0,.62-.37.99-.99.99h-11.18v18.5h13.29c.62,0,.99.37.99.99v.37c0,.62-.37.99-.99.99Z"/>
      <path fill="var(--body-color)" d="M292.74,111.14h-.68c-.56,0-.93-.25-1.12-.81l-7.27-18.25h-8.38v18.07c0,.62-.37.99-.99.99h-.5c-.62,0-.99-.37-.99-.99v-41.48c0-.62.37-.99.99-.99h9c6.58,0,9.69,3.23,9.69,9.19v6.02c0,4.78-1.99,7.82-6.21,8.82l7.26,18.25c.25.68-.06,1.18-.81,1.18ZM290.01,81.77v-3.79c0-5.59-1.99-7.95-7.45-7.95h-7.26v19.68h7.26c5.46,0,7.45-2.36,7.45-7.95Z"/>
      <path fill="var(--body-color)" d="M316.59,111.14h-14.78c-.62,0-.99-.37-.99-.99v-41.48c0-.62.37-.99.99-.99h14.59c.62,0,.99.37.99.99v.37c0,.62-.37.99-.99.99h-13.1v17.88h11.18c.62,0,.99.37.99.99v.37c0,.62-.37.99-.99.99h-11.18v18.5h13.29c.62,0,.99.37.99.99v.37c0,.62-.37.99-.99.99Z"/>
      <path fill="var(--body-color)" d="M325.53,111.14h-.5c-.62,0-.99-.37-.99-.99v-41.48c0-.62.37-.99.99-.99h.81c.56,0,.93.25,1.12.74l15.03,36.69v-36.45c0-.62.37-.99.99-.99h.5c.62,0,.99.37.99.99v41.48c0,.62-.37.99-.99.99h-.68c-.56,0-.93-.25-1.12-.75l-15.15-36.69v36.45c0,.62-.37.99-.99.99Z"/>
      <path fill="var(--body-color)" d="M370.85,95.06v7.39c0,6.08-3.1,9.19-9.69,9.19h-.12c-6.58,0-9.69-3.04-9.69-9.19v-26.08c0-5.84,3.11-9.19,9.69-9.19h.12c6.58,0,9.69,3.35,9.69,9.19v6.33c0,.62-.37.99-.99.99h-.5c-.62,0-.99-.37-.99-.99v-5.22c0-5.53-1.86-7.95-7.26-7.95s-7.26,2.42-7.26,7.95v23.84c0,5.53,1.86,7.95,7.26,7.95s7.26-2.42,7.26-7.95v-6.27c0-.62.37-.99.99-.99h.5c.62,0,.99.37.99.99Z"/>
      <path fill="var(--body-color)" d="M393.27,111.14h-14.78c-.62,0-.99-.37-.99-.99v-41.48c0-.62.37-.99.99-.99h14.59c.62,0,.99.37.99.99v.37c0,.62-.37.99-.99.99h-13.1v17.88h11.18c.62,0,.99.37.99.99v.37c0,.62-.37.99-.99.99h-11.18v18.5h13.29c.62,0,.99.37.99.99v.37c0,.62-.37.99-.99.99Z"/>
    </g>
    <g>
      <path fill="var(--body-color)" d="M299.15,23.11v-4.72c0-5.84,2.98-8.94,8.94-8.94h.12c5.96,0,8.94,3.1,8.94,8.94v6.95c0,3.73-3.85,6.64-8.57,10.06-4.84,3.54-7.08,5.71-7.08,9.93v5.71h14.65c.62,0,.99.37.99.99v.37c0,.62-.37.99-.99.99h-16.14c-.62,0-.99-.37-.99-.99v-7.2c0-5.53,3.54-8.63,8.44-12.04,4.53-3.17,7.2-5.15,7.2-8.57v-5.46c0-4.84-2.17-7.33-6.64-7.33s-6.39,2.48-6.39,7.33v3.97c0,.62-.37.99-.99.99h-.5c-.62,0-.99-.37-.99-.99Z"/>
      <path fill="var(--body-color)" d="M343.23,18.63v26.08c0,5.96-3.29,9.19-9.19,9.19h-.5c-5.9,0-9.19-3.23-9.19-9.19v-26.08c0-5.96,3.29-9.19,9.19-9.19h.5c5.9,0,9.19,3.23,9.19,9.19ZM333.79,11.81c-4.78,0-6.95,2.36-6.95,7.95v23.84c0,5.59,2.17,7.95,6.95,7.95s6.95-2.36,6.95-7.95v-23.84c0-5.59-2.17-7.95-6.95-7.95Z"/>
      <path fill="var(--body-color)" d="M350.8,23.11v-4.72c0-5.84,2.98-8.94,8.94-8.94h.12c5.96,0,8.94,3.1,8.94,8.94v6.95c0,3.73-3.85,6.64-8.57,10.06-4.84,3.54-7.08,5.71-7.08,9.93v5.71h14.65c.62,0,.99.37.99.99v.37c0,.62-.37.99-.99.99h-16.14c-.62,0-.99-.37-.99-.99v-7.2c0-5.53,3.54-8.63,8.44-12.04,4.53-3.17,7.2-5.15,7.2-8.57v-5.46c0-4.84-2.17-7.33-6.64-7.33s-6.39,2.48-6.39,7.33v3.97c0,.62-.37.99-.99.99h-.5c-.62,0-.99-.37-.99-.99Z"/>
      <path fill="var(--body-color)" d="M392.53,12.3h-14.03v16.95c1.37-1.86,3.54-3.6,7.7-3.6,3.6,0,7.82,1.49,7.82,7.08v12.23c0,5.84-3.1,8.94-9.06,8.94h-.12c-5.96,0-9.06-3.1-9.06-8.94v-4.84c0-.62.37-.99.99-.99h.5c.62,0,.99.37.99.99v4.1c0,4.84,2.05,7.33,6.64,7.33s6.64-2.48,6.64-7.33v-10.68c0-4.84-3.04-5.53-5.46-5.53-3.66,0-5.59,1.55-7.08,3.17-.37.43-.81.56-1.3.43l-.81-.19c-.62-.19-.87-.56-.87-1.12V10.94c0-.62.37-.99.99-.99h15.52c.62,0,.99.37.99.99v.37c0,.62-.37.99-.99.99Z"/>
    </g>
    <g>
      <path fill="var(--body-color)" d="M14.18,126.41h.66l4.71,14.08,4.77-14.08h1.28l-5.44,15.45h-1.28l-2.44-7.22-1.94-6.1-1.94,6.05-2.46,7.26h-1.28l-5.39-15.45h1.25l4.75,14.08,4.73-14.08Z"/>
      <path fill="var(--body-color)" d="M26.6,136.38c0-3.26,2.46-5.61,5.52-5.61s5.79,1.87,5.37,6.12h-9.79c.22,2.55,2.18,4.03,4.42,4.03,1.43,0,3.1-.57,3.92-1.65l.77.62c-1.06,1.39-2.95,2.09-4.69,2.09-3.06,0-5.52-2.13-5.52-5.59ZM36.53,135.94c-.02-2.68-1.78-4.18-4.4-4.18-2.24,0-4.18,1.52-4.42,4.18h8.82Z"/>
      <path fill="var(--body-color)" d="M50.28,126.41v15.4h-1.06v-2.4c-.9,1.65-2.68,2.57-4.53,2.57-3.04,0-5.43-2-5.43-5.61s2.42-5.61,5.46-5.61c1.87,0,3.63.79,4.51,2.55v-6.91h1.06ZM40.32,136.38c0,3.01,2,4.55,4.44,4.55s4.45-1.87,4.45-4.58-1.94-4.55-4.45-4.55-4.44,1.52-4.44,4.58Z"/>
      <path fill="var(--body-color)" d="M53.82,130.95v1.94c.84-1.5,2.36-2.11,3.87-2.13,2.9,0,4.91,1.78,4.91,4.8v6.27h-1.08v-6.25c0-2.46-1.52-3.78-3.87-3.76-2.24.02-3.81,1.72-3.81,3.96v6.05h-1.08v-10.87h1.06Z"/>
      <path fill="var(--body-color)" d="M64.36,136.38c0-3.26,2.46-5.61,5.52-5.61s5.79,1.87,5.37,6.12h-9.79c.22,2.55,2.18,4.03,4.42,4.03,1.43,0,3.1-.57,3.92-1.65l.77.62c-1.06,1.39-2.95,2.09-4.69,2.09-3.06,0-5.52-2.13-5.52-5.59ZM74.28,135.94c-.02-2.68-1.78-4.18-4.4-4.18-2.24,0-4.18,1.52-4.42,4.18h8.82Z"/>
      <path fill="var(--body-color)" d="M85.08,132.93c-1.1-.97-2.18-1.14-3.39-1.14-1.7-.02-3.32.62-3.28,2,.04,1.45,1.94,1.74,3.3,1.98,1.94.33,4.6.66,4.49,3.19-.07,2.4-2.55,3.04-4.47,3.04s-3.81-.73-4.75-2.18l.79-.7c.9,1.3,2.53,1.85,3.98,1.85,1.32,0,3.32-.35,3.39-2.07.04-1.56-1.76-1.87-3.54-2.16-2.11-.35-4.2-.75-4.22-2.93-.02-2.13,2.11-3.06,4.31-3.04,1.58,0,2.97.44,4.05,1.45l-.66.7Z"/>
      <path fill="var(--body-color)" d="M98.67,126.41v15.4h-1.06v-2.4c-.9,1.65-2.68,2.57-4.53,2.57-3.04,0-5.43-2-5.43-5.61s2.42-5.61,5.46-5.61c1.87,0,3.63.79,4.51,2.55v-6.91h1.06ZM88.7,136.38c0,3.01,2,4.55,4.44,4.55s4.45-1.87,4.45-4.58-1.94-4.55-4.45-4.55-4.44,1.52-4.44,4.58Z"/>
      <path fill="var(--body-color)" d="M111.72,130.95v10.87h-1.08v-2.31c-1.06,1.69-2.68,2.49-4.44,2.49-3.04,0-5.52-2.29-5.52-5.61s2.49-5.57,5.52-5.57c1.76,0,3.54.81,4.44,2.51v-2.38h1.08ZM101.75,136.38c0,2.73,1.98,4.55,4.45,4.55,6.05,0,6.05-9.09,0-9.09-2.46,0-4.45,1.8-4.45,4.53Z"/>
      <path fill="var(--body-color)" d="M123.51,130.95l-6.62,15.4h-1.14l2-4.66-4.36-10.74h1.17l2.53,6.42,1.28,3.15,1.25-3.17,2.73-6.4h1.17Z"/>
      <path fill="var(--body-color)" d="M126.77,141.16c0,.13-.02.24-.07.37l-.88,2.24h-.95l.68-1.83c-.29-.11-.53-.37-.53-.79,0-1.14,1.74-1.14,1.74,0Z"/>
      <path fill="var(--body-color)" d="M148.69,128.13l-5.9,9.02h-.4l-5.94-9.02v13.69h-1.19v-15.4h1.41l5.9,8.98,5.83-8.98h1.45v15.4h-1.17v-13.69Z"/>
      <path fill="var(--body-color)" d="M162.97,130.95v10.87h-1.08v-2.31c-1.06,1.69-2.68,2.49-4.44,2.49-3.04,0-5.52-2.29-5.52-5.61s2.49-5.57,5.52-5.57c1.76,0,3.54.81,4.44,2.51v-2.38h1.08ZM153.01,136.38c0,2.73,1.98,4.55,4.44,4.55,6.05,0,6.05-9.09,0-9.09-2.46,0-4.44,1.8-4.44,4.53Z"/>
      <path fill="var(--body-color)" d="M166.33,130.95l.04,1.94c.68-1.47,2.22-2.05,3.61-2.05.81-.02,1.61.2,2.33.64l-.48.88c-.57-.35-1.21-.51-1.85-.51-2.02.02-3.59,1.65-3.59,3.63v6.34h-1.08v-10.87h1.01Z"/>
      <path fill="var(--body-color)" d="M182.65,140.3c-1.1,1.1-2.53,1.63-3.96,1.63-3.06,0-5.59-2.11-5.59-5.54s2.44-5.54,5.59-5.54c1.43,0,2.86.55,3.96,1.63l-.71.68c-.88-.88-2.09-1.3-3.26-1.3-2.46,0-4.53,1.61-4.53,4.53s2.07,4.53,4.53,4.53c1.17,0,2.35-.46,3.23-1.34l.73.73Z"/>
      <path fill="var(--body-color)" d="M185.44,126.41v6.56c.88-1.56,2.4-2.16,3.92-2.18,3.04,0,4.55,1.96,4.55,4.8v6.23h-1.06v-6.23c0-2.24-1.06-3.76-3.5-3.76-2.29,0-3.87,1.76-3.87,4.03v5.96h-1.08v-15.4h1.03Z"/>
      <path fill="var(--body-color)" d="M202.27,133.46v-7.04h10.72v1.06h-9.62v4.93h4.95c4.18,0,5.52,2.33,5.52,4.73,0,2.53-1.89,4.8-5.98,4.8-2.79,0-5.94-.92-5.96-4.36h1.19c0,2.68,2.71,3.17,4.78,3.17,3.3,0,4.8-1.54,4.8-3.59,0-1.85-.92-3.7-4.33-3.7h-6.05Z"/>
      <path fill="var(--body-color)" d="M217.41,141.16c0,.13-.02.24-.07.37l-.88,2.24h-.95l.68-1.83c-.29-.11-.53-.37-.53-.79,0-1.14,1.74-1.14,1.74,0Z"/>
      <path fill="var(--body-color)" d="M225.59,130.51c0-3.28,3.12-4.29,5.9-4.29s5.92,1.17,5.94,4.49c0,3.15-3.17,4.42-5.9,4.42-2.24.02-4.86.55-4.86,3.19v2.35h10.61v1.14h-11.77v-3.48c0-3.41,3.15-4.29,5.99-4.29,2,0,4.84-.75,4.84-3.34s-2.73-3.45-4.84-3.45-4.73.7-4.73,3.26h-1.17Z"/>
      <path fill="var(--body-color)" d="M239.4,132.27c0-8.08,11.79-8.05,11.79,0v3.67c0,8.05-11.79,8.08-11.79,0v-3.67ZM240.56,135.94c0,6.6,9.46,6.58,9.46,0v-3.67c0-6.56-9.46-6.58-9.46,0v3.67Z"/>
      <path fill="var(--body-color)" d="M253.14,130.51c0-3.28,3.12-4.29,5.9-4.29s5.92,1.17,5.94,4.49c0,3.15-3.17,4.42-5.9,4.42-2.24.02-4.86.55-4.86,3.19v2.35h10.61v1.14h-11.77v-3.48c0-3.41,3.15-4.29,5.99-4.29,2,0,4.84-.75,4.84-3.34s-2.73-3.45-4.84-3.45-4.73.7-4.73,3.26h-1.17Z"/>
      <path fill="var(--body-color)" d="M267.36,133.46v-7.04h10.72v1.06h-9.62v4.93h4.95c4.18,0,5.52,2.33,5.52,4.73,0,2.53-1.89,4.8-5.98,4.8-2.79,0-5.94-.92-5.96-4.36h1.19c0,2.68,2.71,3.17,4.78,3.17,3.3,0,4.8-1.54,4.8-3.59,0-1.85-.92-3.7-4.33-3.7h-6.05Z"/>
    </g>
  </g>
</svg>