<svg xmlns="http://www.w3.org/2000/svg">
  <symbol id="logo" viewBox="0 0 400 150">
    <g>
      <g>
        <path fill="var(--primary)"
          d="M3.87,113.32V9.61h6.22L46.68,98.95V9.61h5.93V113.32h-5.93L9.8,23.98V113.32H3.87Z" />
        <path fill="var(--primary)" d="M97.05,15.24h-20V113.32h-5.93V15.24h-20v-5.63h45.93v5.63Z" />
        <path fill="var(--primary)" d="M134.09,15.24h-20V113.32h-5.93V15.24h-20v-5.63h45.93v5.63Z" />
      </g>
      <g>
        <path fill="var(--primary)"
          d="M162.98,10.94v.37c0,.62-.37,.99-.99,.99h-7.39V52.41c0,.62-.37,.99-.99,.99h-.5c-.62,0-.99-.37-.99-.99V12.3h-7.39c-.62,0-.99-.37-.99-.99v-.37c0-.62,.37-.99,.99-.99h17.26c.62,0,.99,.37,.99,.99Z" />
        <path fill="var(--primary)"
          d="M184.71,53.4h-14.78c-.62,0-.99-.37-.99-.99V10.94c0-.62,.37-.99,.99-.99h14.59c.62,0,.99,.37,.99,.99v.37c0,.62-.37,.99-.99,.99h-13.1V30.18h11.18c.62,0,.99,.37,.99,.99v.37c0,.62-.37,.99-.99,.99h-11.18v18.5h13.29c.62,0,.99,.37,.99,.99v.37c0,.62-.37,.99-.99,.99Z" />
        <path fill="var(--primary)"
          d="M211.41,37.32v7.39c0,6.08-3.1,9.19-9.69,9.19h-.12c-6.58,0-9.69-3.04-9.69-9.19V18.63c0-5.84,3.1-9.19,9.69-9.19h.12c6.58,0,9.69,3.35,9.69,9.19v6.33c0,.62-.37,.99-.99,.99h-.5c-.62,0-.99-.37-.99-.99v-5.22c0-5.53-1.86-7.95-7.26-7.95s-7.26,2.42-7.26,7.95v23.84c0,5.53,1.86,7.95,7.26,7.95s7.26-2.42,7.26-7.95v-6.27c0-.62,.37-.99,.99-.99h.5c.62,0,.99,.37,.99,.99Z" />
        <path fill="var(--primary)"
          d="M219.97,9.94h.5c.62,0,.99,.37,.99,.99V30.12h15.21V10.94c0-.62,.37-.99,.99-.99h.5c.62,0,.99,.37,.99,.99V52.41c0,.62-.37,.99-.99,.99h-.5c-.62,0-.99-.37-.99-.99v-19.93h-15.21v19.93c0,.62-.37,.99-.99,.99h-.5c-.62,0-.99-.37-.99-.99V10.94c0-.62,.37-.99,.99-.99Z" />
        <path fill="var(--body-color)"
          d="M166.33,95.06v7.39c0,6.08-3.1,9.19-9.69,9.19h-.12c-6.58,0-9.69-3.04-9.69-9.19v-26.08c0-5.84,3.1-9.19,9.69-9.19h.12c6.58,0,9.69,3.35,9.69,9.19v6.33c0,.62-.37,.99-.99,.99h-.5c-.62,0-.99-.37-.99-.99v-5.22c0-5.53-1.86-7.95-7.26-7.95s-7.26,2.42-7.26,7.95v23.84c0,5.53,1.86,7.95,7.26,7.95s7.26-2.42,7.26-7.95v-6.27c0-.62,.37-.99,.99-.99h.5c.62,0,.99,.37,.99,.99Z" />
        <path fill="var(--body-color)"
          d="M182.41,67.18h.5c6.58,0,9.69,3.23,9.69,9.19v26.08c0,5.96-3.1,9.19-9.69,9.19h-.5c-6.58,0-9.69-3.23-9.69-9.19v-26.08c0-6.02,3.1-9.19,9.69-9.19Zm.25,42.1c5.46,0,7.45-2.36,7.45-7.95v-23.84c0-5.59-1.99-7.95-7.45-7.95s-7.45,2.36-7.45,7.95v23.84c0,5.59,1.99,7.95,7.45,7.95Z" />
        <path fill="var(--body-color)"
          d="M200.98,111.14h-.5c-.62,0-.99-.37-.99-.99v-41.48c0-.62,.37-.99,.99-.99h.81c.56,0,.93,.25,1.12,.74l15.03,36.69v-36.45c0-.62,.37-.99,.99-.99h.5c.62,0,.99,.37,.99,.99v41.48c0,.62-.37,.99-.99,.99h-.68c-.56,0-.93-.25-1.12-.75l-15.15-36.69v36.45c0,.62-.37,.99-.99,.99Z" />
        <path fill="var(--body-color)"
          d="M227.05,110.14v-41.48c0-.62,.37-.99,.99-.99h14.34c.62,0,.99,.37,.99,.99v.37c0,.62-.37,.99-.99,.99h-12.85v18.19h10.93c.62,0,.99,.37,.99,.99v.37c0,.62-.37,.99-.99,.99h-10.93v19.56c0,.62-.37,.99-.99,.99h-.5c-.62,0-.99-.37-.99-.99Z" />
        <path fill="var(--body-color)"
          d="M265.36,111.14h-14.78c-.62,0-.99-.37-.99-.99v-41.48c0-.62,.37-.99,.99-.99h14.59c.62,0,.99,.37,.99,.99v.37c0,.62-.37,.99-.99,.99h-13.1v17.88h11.18c.62,0,.99,.37,.99,.99v.37c0,.62-.37,.99-.99,.99h-11.18v18.5h13.29c.62,0,.99,.37,.99,.99v.37c0,.62-.37,.99-.99,.99Z" />
        <path fill="var(--body-color)"
          d="M292.74,111.14h-.68c-.56,0-.93-.25-1.12-.81l-7.26-18.25h-8.38v18.07c0,.62-.37,.99-.99,.99h-.5c-.62,0-.99-.37-.99-.99v-41.48c0-.62,.37-.99,.99-.99h9c6.58,0,9.69,3.23,9.69,9.19v6.02c0,4.78-1.99,7.82-6.21,8.82l7.26,18.25c.25,.68-.06,1.18-.81,1.18Zm-2.73-29.37v-3.79c0-5.59-1.99-7.95-7.45-7.95h-7.26v19.68h7.26c5.46,0,7.45-2.36,7.45-7.95Z" />
        <path fill="var(--body-color)"
          d="M316.59,111.14h-14.78c-.62,0-.99-.37-.99-.99v-41.48c0-.62,.37-.99,.99-.99h14.59c.62,0,.99,.37,.99,.99v.37c0,.62-.37,.99-.99,.99h-13.1v17.88h11.18c.62,0,.99,.37,.99,.99v.37c0,.62-.37,.99-.99,.99h-11.18v18.5h13.29c.62,0,.99,.37,.99,.99v.37c0,.62-.37,.99-.99,.99Z" />
        <path fill="var(--body-color)"
          d="M325.53,111.14h-.5c-.62,0-.99-.37-.99-.99v-41.48c0-.62,.37-.99,.99-.99h.81c.56,0,.93,.25,1.12,.74l15.03,36.69v-36.45c0-.62,.37-.99,.99-.99h.5c.62,0,.99,.37,.99,.99v41.48c0,.62-.37,.99-.99,.99h-.68c-.56,0-.93-.25-1.12-.75l-15.15-36.69v36.45c0,.62-.37,.99-.99,.99Z" />
        <path fill="var(--body-color)"
          d="M370.85,95.06v7.39c0,6.08-3.1,9.19-9.69,9.19h-.12c-6.58,0-9.69-3.04-9.69-9.19v-26.08c0-5.84,3.11-9.19,9.69-9.19h.12c6.58,0,9.69,3.35,9.69,9.19v6.33c0,.62-.37,.99-.99,.99h-.5c-.62,0-.99-.37-.99-.99v-5.22c0-5.53-1.86-7.95-7.26-7.95s-7.26,2.42-7.26,7.95v23.84c0,5.53,1.86,7.95,7.26,7.95s7.26-2.42,7.26-7.95v-6.27c0-.62,.37-.99,.99-.99h.5c.62,0,.99,.37,.99,.99Z" />
        <path fill="var(--body-color)"
          d="M393.27,111.14h-14.78c-.62,0-.99-.37-.99-.99v-41.48c0-.62,.37-.99,.99-.99h14.59c.62,0,.99,.37,.99,.99v.37c0,.62-.37,.99-.99,.99h-13.1v17.88h11.18c.62,0,.99,.37,.99,.99v.37c0,.62-.37,.99-.99,.99h-11.18v18.5h13.29c.62,0,.99,.37,.99,.99v.37c0,.62-.37,.99-.99,.99Z" />
      </g>
      <g>
        <path fill="var(--body-color)"
          d="M301.13,23.11v-4.72c0-5.84,2.98-8.94,8.94-8.94h.12c5.96,0,8.94,3.1,8.94,8.94v6.95c0,3.73-3.85,6.64-8.57,10.06-4.84,3.54-7.08,5.71-7.08,9.93v5.71h14.65c.62,0,.99,.37,.99,.99v.37c0,.62-.37,.99-.99,.99h-16.14c-.62,0-.99-.37-.99-.99v-7.2c0-5.53,3.54-8.63,8.44-12.04,4.53-3.17,7.2-5.15,7.2-8.57v-5.46c0-4.84-2.17-7.33-6.64-7.33s-6.4,2.48-6.4,7.33v3.97c0,.62-.37,.99-.99,.99h-.5c-.62,0-.99-.37-.99-.99Z" />
        <path fill="var(--body-color)"
          d="M345.21,18.63v26.08c0,5.96-3.29,9.19-9.19,9.19h-.5c-5.9,0-9.19-3.23-9.19-9.19V18.63c0-5.96,3.29-9.19,9.19-9.19h.5c5.9,0,9.19,3.23,9.19,9.19Zm-9.44-6.83c-4.78,0-6.95,2.36-6.95,7.95v23.84c0,5.59,2.17,7.95,6.95,7.95s6.96-2.36,6.96-7.95V19.75c0-5.59-2.17-7.95-6.96-7.95Z" />
        <path fill="var(--body-color)"
          d="M352.79,23.11v-4.72c0-5.84,2.98-8.94,8.94-8.94h.12c5.96,0,8.94,3.1,8.94,8.94v6.95c0,3.73-3.85,6.64-8.57,10.06-4.84,3.54-7.08,5.71-7.08,9.93v5.71h14.65c.62,0,.99,.37,.99,.99v.37c0,.62-.37,.99-.99,.99h-16.14c-.62,0-.99-.37-.99-.99v-7.2c0-5.53,3.54-8.63,8.44-12.04,4.53-3.17,7.2-5.15,7.2-8.57v-5.46c0-4.84-2.17-7.33-6.64-7.33s-6.4,2.48-6.4,7.33v3.97c0,.62-.37,.99-.99,.99h-.5c-.62,0-.99-.37-.99-.99Z" />
        <path fill="var(--body-color)"
          d="M392.4,10.94v28.25h2.86c.62,0,.99,.37,.99,.99v.37c0,.62-.37,.99-.99,.99h-2.86v10.87c0,.62-.37,.99-.99,.99h-.5c-.62,0-.99-.37-.99-.99v-10.87h-13.91c-.62,0-.99-.37-.99-.99v-.93c0-.43,.12-.81,.31-1.18l14.34-27.75c.25-.5,.62-.74,1.18-.74h.56c.62,0,.99,.37,.99,.99Zm-14.9,28.25h12.42V15.16l-12.42,24.03Z" />
      </g>
      <g>
        <path fill="var(--body-color)"
          d="M17.87,128.13l-5.9,9.02h-.4l-5.94-9.02v13.69h-1.19v-15.4h1.41l5.9,8.98,5.83-8.98h1.45v15.4h-1.17v-13.69Z" />
        <path fill="var(--body-color)"
          d="M21.18,136.4c0-3.45,2.46-5.65,5.52-5.65s5.52,2.2,5.52,5.65-2.46,5.57-5.52,5.57-5.52-2.11-5.52-5.57Zm9.99,0c0-2.82-2-4.64-4.47-4.64s-4.47,1.83-4.47,4.64,2,4.51,4.47,4.51,4.47-1.69,4.47-4.51Z" />
        <path fill="var(--body-color)"
          d="M35.27,130.95v1.94c.84-1.5,2.35-2.11,3.87-2.13,2.9,0,4.91,1.78,4.91,4.8v6.27h-1.08v-6.25c0-2.46-1.52-3.78-3.87-3.76-2.24,.02-3.81,1.72-3.81,3.96v6.05h-1.08v-10.87h1.06Z" />
        <path fill="var(--body-color)"
          d="M56.85,126.41v15.4h-1.06v-2.4c-.9,1.65-2.68,2.57-4.53,2.57-3.04,0-5.43-2-5.43-5.61s2.42-5.61,5.46-5.61c1.87,0,3.63,.79,4.51,2.55v-6.91h1.06Zm-9.97,9.97c0,3.01,2,4.55,4.44,4.55s4.44-1.87,4.44-4.58-1.94-4.55-4.44-4.55-4.44,1.52-4.44,4.58Z" />
        <path fill="var(--body-color)"
          d="M69.9,130.95v10.87h-1.08v-2.31c-1.06,1.69-2.68,2.49-4.44,2.49-3.04,0-5.52-2.29-5.52-5.61s2.49-5.57,5.52-5.57c1.76,0,3.54,.81,4.44,2.51v-2.38h1.08Zm-9.97,5.44c0,2.73,1.98,4.55,4.44,4.55,6.05,0,6.05-9.09,0-9.09-2.46,0-4.44,1.8-4.44,4.53Z" />
        <path fill="var(--body-color)"
          d="M81.69,130.95l-6.62,15.4h-1.14l2-4.66-4.36-10.74h1.17l2.53,6.42,1.28,3.15,1.25-3.17,2.73-6.4h1.17Z" />
        <path fill="var(--body-color)"
          d="M84.95,141.16c0,.13-.02,.24-.07,.37l-.88,2.24h-.95l.68-1.83c-.29-.11-.53-.37-.53-.79,0-1.14,1.74-1.14,1.74,0Z" />
        <path fill="var(--body-color)"
          d="M106.87,128.13l-5.9,9.02h-.4l-5.94-9.02v13.69h-1.19v-15.4h1.41l5.9,8.98,5.83-8.98h1.45v15.4h-1.17v-13.69Z" />
        <path fill="var(--body-color)"
          d="M121.16,130.95v10.87h-1.08v-2.31c-1.06,1.69-2.68,2.49-4.44,2.49-3.04,0-5.52-2.29-5.52-5.61s2.49-5.57,5.52-5.57c1.76,0,3.54,.81,4.44,2.51v-2.38h1.08Zm-9.97,5.44c0,2.73,1.98,4.55,4.44,4.55,6.05,0,6.05-9.09,0-9.09-2.46,0-4.44,1.8-4.44,4.53Z" />
        <path fill="var(--body-color)"
          d="M124.51,130.95l.04,1.94c.68-1.47,2.22-2.05,3.61-2.05,.81-.02,1.61,.2,2.33,.64l-.48,.88c-.57-.35-1.21-.51-1.85-.51-2.02,.02-3.59,1.65-3.59,3.63v6.34h-1.08v-10.87h1.01Z" />
        <path fill="var(--body-color)"
          d="M140.83,140.3c-1.1,1.1-2.53,1.63-3.96,1.63-3.06,0-5.59-2.11-5.59-5.54s2.44-5.54,5.59-5.54c1.43,0,2.86,.55,3.96,1.63l-.7,.68c-.88-.88-2.09-1.3-3.26-1.3-2.46,0-4.53,1.61-4.53,4.53s2.07,4.53,4.53,4.53c1.17,0,2.35-.46,3.23-1.34l.73,.73Z" />
        <path fill="var(--body-color)"
          d="M143.63,126.41v6.56c.88-1.56,2.4-2.16,3.92-2.18,3.04,0,4.55,1.96,4.55,4.8v6.23h-1.06v-6.23c0-2.24-1.06-3.76-3.5-3.76-2.29,0-3.87,1.76-3.87,4.03v5.96h-1.08v-15.4h1.03Z" />
        <path fill="var(--body-color)"
          d="M159.5,140.78h2.6v-13.31h-2.6v-1.06h3.78v14.37h2.6v1.03h-6.38v-1.03Z" />
        <path fill="var(--body-color)"
          d="M166.55,140.78h2.6v-13.31h-2.6v-1.06h3.78v14.37h2.6v1.03h-6.38v-1.03Z" />
        <path fill="var(--body-color)"
          d="M176.09,141.16c0,.13-.02,.24-.07,.37l-.88,2.24h-.95l.68-1.83c-.29-.11-.53-.37-.53-.79,0-1.14,1.74-1.14,1.74,0Z" />
        <path fill="var(--body-color)"
          d="M184.27,130.51c0-3.28,3.12-4.29,5.9-4.29s5.92,1.17,5.94,4.49c0,3.15-3.17,4.42-5.9,4.42-2.24,.02-4.86,.55-4.86,3.19v2.35h10.61v1.14h-11.77v-3.48c0-3.41,3.15-4.29,5.98-4.29,2,0,4.84-.75,4.84-3.34s-2.73-3.45-4.84-3.45-4.73,.7-4.73,3.26h-1.17Z" />
        <path fill="var(--body-color)"
          d="M198.08,132.27c0-8.08,11.79-8.05,11.79,0v3.67c0,8.05-11.79,8.08-11.79,0v-3.67Zm1.17,3.67c0,6.6,9.46,6.58,9.46,0v-3.67c0-6.56-9.46-6.58-9.46,0v3.67Z" />
        <path fill="var(--body-color)"
          d="M211.82,130.51c0-3.28,3.12-4.29,5.9-4.29s5.92,1.17,5.94,4.49c0,3.15-3.17,4.42-5.9,4.42-2.24,.02-4.86,.55-4.86,3.19v2.35h10.61v1.14h-11.77v-3.48c0-3.41,3.15-4.29,5.98-4.29,2,0,4.84-.75,4.84-3.34s-2.73-3.45-4.84-3.45-4.73,.7-4.73,3.26h-1.17Z" />
        <path fill="var(--body-color)"
          d="M236.11,126.41v10.74h1.94v1.19h-1.94v3.48h-1.19v-3.48h-9.44l-.24-1.43,8.91-10.5h1.96Zm-1.19,.88l-8.41,9.86h8.41v-9.86Z" />
      </g>
    </g>
  </symbol>
</svg>
